<svg width="554" height="554" viewBox="0 0 554 554" fill="none" xmlns="http://www.w3.org/2000/svg">
<path d="M554 423.699H0V423.976H554V423.699Z" fill="#EBEBEB"/>
<path d="M498.49 441.527H461.793V441.804H498.49V441.527Z" fill="#EBEBEB"/>
<path d="M366.992 444.541H357.363V444.818H366.992V444.541Z" fill="#EBEBEB"/>
<path d="M460.684 431.245H439.422V431.522H460.684V431.245Z" fill="#EBEBEB"/>
<path d="M105.98 433.106H58.125V433.383H105.98V433.106Z" fill="#EBEBEB"/>
<path d="M122.865 433.106H115.852V433.383H122.865V433.106Z" fill="#EBEBEB"/>
<path d="M249.465 437.782H145.668V438.059H249.465V437.782Z" fill="#EBEBEB"/>
<path d="M262.595 374.283H48.6515C46.9755 374.28 45.3691 373.612 44.1851 372.426C43.001 371.24 42.3359 369.632 42.3359 367.956V67.2117C42.3505 65.5453 43.022 63.9519 44.2045 62.7777C45.387 61.6035 46.9851 60.9433 48.6515 60.9404H262.595C264.273 60.9404 265.882 61.607 267.069 62.7935C268.255 63.98 268.922 65.5892 268.922 67.2671V367.956C268.922 369.634 268.255 371.243 267.069 372.43C265.882 373.616 264.273 374.283 262.595 374.283ZM48.6515 61.162C47.049 61.165 45.5131 61.8036 44.3809 62.9379C43.2488 64.0721 42.6129 65.6092 42.6129 67.2117V367.956C42.6129 369.559 43.2488 371.096 44.3809 372.23C45.5131 373.364 47.049 374.003 48.6515 374.006H262.595C264.199 374.003 265.736 373.365 266.87 372.231C268.004 371.097 268.642 369.56 268.645 367.956V67.2117C268.642 65.6081 268.004 64.0711 266.87 62.9372C265.736 61.8033 264.199 61.165 262.595 61.162H48.6515Z" fill="#EBEBEB"/>
<path d="M502.268 374.283H288.313C286.636 374.28 285.028 373.612 283.843 372.427C282.657 371.241 281.989 369.633 281.986 367.956V67.2117C282.004 65.5443 282.678 63.951 283.862 62.777C285.046 61.6031 286.645 60.9433 288.313 60.9404H502.268C503.932 60.9462 505.528 61.6077 506.708 62.7816C507.888 63.9555 508.558 65.5472 508.572 67.2117V367.956C508.572 369.63 507.909 371.236 506.727 372.422C505.545 373.608 503.942 374.277 502.268 374.283ZM288.313 61.162C286.709 61.165 285.172 61.8033 284.038 62.9372C282.905 64.0711 282.266 65.6081 282.263 67.2117V367.956C282.266 369.56 282.905 371.097 284.038 372.231C285.172 373.365 286.709 374.003 288.313 374.006H502.268C503.871 374.003 505.408 373.365 506.542 372.231C507.676 371.097 508.315 369.56 508.317 367.956V67.2117C508.315 65.6081 507.676 64.0711 506.542 62.9372C505.408 61.8033 503.871 61.165 502.268 61.162H288.313Z" fill="#EBEBEB"/>
<path d="M240.015 119.709H100.994V263.35H240.015V119.709Z" fill="#EBEBEB"/>
<path d="M244.868 119.709H105.848V263.35H244.868V119.709Z" fill="#F0F0F0"/>
<path d="M241.189 123.11H109.359V260.015H241.189V123.11Z" fill="#E0E0E0"/>
<path d="M237.898 123.11H109.359V260.015H237.898V123.11Z" fill="#F5F5F5"/>
<path d="M174.953 123.11H172.338V260.015H174.953V123.11Z" fill="#EBEBEB"/>
<path d="M157.314 123.11L120.684 260.004H117.16L153.802 123.11H157.314Z" fill="white"/>
<path d="M176.072 120.994H173.834V262.63H176.072V120.994Z" fill="#F0F0F0"/>
<path d="M144.018 123.11L109.359 252.669V181.458L124.96 123.11H144.018Z" fill="white"/>
<path d="M237.889 135.531V148.672L208.094 260.004H204.582L237.889 135.531Z" fill="white"/>
<path d="M237.888 162.067V233.279L230.741 260.004H211.684L237.888 162.067Z" fill="white"/>
<path d="M350.637 313.376H483.752C483.751 315.729 482.844 317.991 481.217 319.692C479.591 321.392 477.371 322.4 475.021 322.506C460.717 323.149 438.712 325.409 431.731 333.32C418.723 348.079 419.975 399.911 435.565 411.91C440.451 415.678 454.689 423.157 454.689 423.157H379.688C379.688 423.157 392.984 415.523 397.627 411.91C413.139 399.811 413.571 348.012 400.497 333.32C393.849 325.786 373.162 323.348 359.323 322.583C356.973 322.45 354.763 321.422 353.147 319.709C351.531 317.997 350.633 315.73 350.637 313.376Z" fill="#F5F5F5"/>
<path d="M467.255 322.982C453.737 324.09 437.538 326.739 431.732 333.32C429.836 335.593 428.338 338.171 427.3 340.943H404.974C403.926 338.176 402.429 335.6 400.542 333.32C394.714 326.772 378.382 324.079 365.086 322.982H467.255Z" fill="#E6E6E6"/>
<path d="M407.333 313.442L409.15 292.756H382.902L381.096 313.442H407.333Z" fill="#EBEBEB"/>
<path d="M407.334 313.442L409.151 292.756H410.558L408.752 313.442H407.334Z" fill="#E0E0E0"/>
<path d="M404.841 311.337L406.292 294.861H385.395L383.955 311.337H404.841Z" fill="#F0F0F0"/>
<path d="M403.246 309.975L404.454 296.225H387.003L385.795 309.975H403.246Z" fill="#FAFAFA"/>
<path d="M415.844 313.376H442.203L439.278 279.947H412.93L415.844 313.376Z" fill="#E6E6E6"/>
<path d="M415.843 313.376H414.591L411.666 279.947H412.929L415.843 313.376Z" fill="#E0E0E0"/>
<path d="M418.237 309.975H439.222L436.896 283.36H415.91L418.237 309.975Z" fill="#F0F0F0"/>
<path d="M419.776 307.781H437.305L435.355 285.555H417.826L419.776 307.781Z" fill="#FAFAFA"/>
<path d="M428.63 295.548C428.347 295.833 428.012 296.058 427.642 296.212C427.272 296.366 426.875 296.446 426.475 296.446C426.074 296.446 425.677 296.366 425.307 296.212C424.937 296.058 424.602 295.833 424.319 295.548C424.035 295.266 423.809 294.93 423.655 294.56C423.501 294.19 423.422 293.794 423.422 293.393C423.422 292.992 423.501 292.596 423.655 292.226C423.809 291.856 424.035 291.52 424.319 291.238C424.892 290.669 425.667 290.35 426.475 290.35C427.282 290.35 428.057 290.669 428.63 291.238C429.199 291.811 429.518 292.586 429.518 293.393C429.518 294.201 429.199 294.975 428.63 295.548Z" fill="#EBEBEB"/>
<path d="M427.333 299.293C427.539 299.084 427.785 298.917 428.056 298.804C428.327 298.69 428.618 298.632 428.912 298.632C429.206 298.632 429.497 298.69 429.768 298.804C430.039 298.917 430.285 299.084 430.491 299.293C430.811 299.602 431.031 299.999 431.122 300.435C431.213 300.87 431.171 301.323 431.002 301.734C430.832 302.145 430.542 302.496 430.171 302.74C429.799 302.985 429.362 303.112 428.917 303.104C428.472 303.114 428.033 302.989 427.66 302.745C427.287 302.502 426.995 302.151 426.824 301.74C426.653 301.328 426.61 300.874 426.701 300.438C426.792 300.001 427.012 299.602 427.333 299.293Z" fill="#F0F0F0"/>
<path d="M203.939 416.32H229.611L216.116 306.396C215.792 304.1 214.665 301.993 212.934 300.449C211.204 298.905 208.983 298.025 206.665 297.964H94.6348L111.066 416.32H203.939Z" fill="#F5F5F5"/>
<path d="M122.522 416.321H96.8494L83.354 306.396C83.1881 305.339 83.2564 304.259 83.554 303.232C83.8516 302.205 84.3713 301.255 85.0763 300.451C85.7812 299.646 86.6543 299.007 87.6338 298.577C88.6132 298.147 89.6751 297.938 90.7443 297.964H99.6083C101.928 298.025 104.15 298.905 105.882 300.448C107.615 301.992 108.744 304.099 109.071 306.396L122.522 416.321Z" fill="#F0F0F0"/>
<path d="M131.975 416.187L127.332 363.003C127.229 361.848 126.733 360.764 125.926 359.931C125.119 359.098 124.051 358.567 122.9 358.427L120.983 358.183C119.444 357.984 118.019 357.265 116.944 356.144C115.87 355.024 115.212 353.569 115.078 352.023L114.225 342.328C114.143 341.389 114.258 340.444 114.561 339.552C114.864 338.659 115.349 337.84 115.986 337.145C116.622 336.45 117.396 335.895 118.258 335.515C119.12 335.135 120.052 334.939 120.994 334.938H78.1148C77.168 334.936 76.2314 335.133 75.3651 335.515C74.4988 335.897 73.722 336.457 73.0845 337.157C72.447 337.857 71.963 338.682 71.6634 339.581C71.3638 340.479 71.2553 341.43 71.3449 342.372L72.187 352.067C72.3233 353.615 72.9842 355.069 74.0603 356.19C75.1364 357.31 76.563 358.029 78.1037 358.228L80.0095 358.471C81.1605 358.611 82.2286 359.142 83.0353 359.975C83.8419 360.808 84.3383 361.893 84.4415 363.047L89.0951 416.231C89.2612 418.101 90.1209 419.84 91.505 421.107C92.8891 422.375 94.6975 423.078 96.5741 423.079H139.476C137.588 423.083 135.769 422.376 134.379 421.099C132.989 419.822 132.131 418.068 131.975 416.187Z" fill="#E6E6E6"/>
<path d="M250.053 349.708C250.405 345.68 252.253 341.931 255.233 339.199C258.213 336.467 262.109 334.95 266.152 334.949H228.801C224.765 334.961 220.879 336.482 217.906 339.213C214.933 341.943 213.089 345.687 212.735 349.708L209.057 391.812H246.407L250.053 349.708Z" fill="#E6E6E6"/>
<path d="M282.74 334.949H266.12C262.077 334.951 258.182 336.467 255.202 339.199C252.221 341.931 250.373 345.68 250.021 349.708L246.331 391.812H157.403L153.714 349.708C153.359 345.681 151.51 341.933 148.531 339.202C145.551 336.47 141.657 334.953 137.614 334.949H120.994C120.052 334.95 119.121 335.147 118.258 335.527C117.396 335.907 116.622 336.462 115.986 337.157C115.349 337.852 114.864 338.671 114.561 339.563C114.258 340.456 114.143 341.401 114.225 342.34L115.078 352.035C115.212 353.581 115.87 355.035 116.945 356.156C118.019 357.277 119.444 357.996 120.983 358.195L122.9 358.439C124.051 358.579 125.119 359.11 125.926 359.943C126.733 360.775 127.229 361.86 127.332 363.015L131.975 416.199C132.141 418.068 133.001 419.808 134.385 421.075C135.769 422.342 137.577 423.045 139.454 423.046H264.314C266.19 423.048 267.999 422.345 269.382 421.077C270.765 419.809 271.621 418.068 271.782 416.199L276.436 363.015C276.539 361.86 277.035 360.775 277.842 359.943C278.649 359.11 279.717 358.579 280.868 358.439L282.774 358.195C284.315 357.998 285.743 357.28 286.819 356.159C287.896 355.038 288.556 353.583 288.69 352.035L289.543 342.351C289.625 341.409 289.509 340.46 289.204 339.565C288.899 338.67 288.411 337.848 287.771 337.152C287.132 336.456 286.354 335.901 285.488 335.521C284.621 335.142 283.686 334.947 282.74 334.949Z" fill="#F0F0F0"/>
<path d="M461.084 164.782V130.423H412.476V164.782H461.084Z" fill="#E0E0E0"/>
<path d="M458.801 162.533V132.661H414.758V162.533H458.801Z" fill="#EBEBEB"/>
<path d="M444.219 207.939V173.58H395.611V207.939H444.219Z" fill="#E0E0E0"/>
<path d="M441.938 205.69V175.818H397.894V205.69H441.938Z" fill="#EBEBEB"/>
<path d="M372.311 164.782H403.246V121.016H372.311V164.782Z" fill="#E0E0E0"/>
<path d="M374.326 162.722H401.229V123.066H374.326V162.722Z" fill="#EBEBEB"/>
<path d="M354.715 222.199H389.074V173.591H354.715V222.199Z" fill="#E0E0E0"/>
<path d="M356.964 219.916H386.836V175.873H356.964V219.916Z" fill="#EBEBEB"/>
<path d="M323.758 137.869V164.771H361.818V137.869H323.758Z" fill="#E0E0E0"/>
<path d="M325.553 139.631V163.021H360.034V139.631H325.553Z" fill="#EBEBEB"/>
<path d="M277 473.736C395.647 473.736 491.83 468.121 491.83 461.194C491.83 454.267 395.647 448.651 277 448.651C158.353 448.651 62.1699 454.267 62.1699 461.194C62.1699 468.121 158.353 473.736 277 473.736Z" fill="#F5F5F5"/>
<path d="M178.321 453.914H135.076V462.401H178.321V453.914Z" fill="#C53F3F"/>
<path opacity="0.2" d="M178.322 453.914H168.793V462.401H178.322V453.914Z" fill="black"/>
<path opacity="0.2" d="M164.218 462.401H167.686V453.914H164.218V462.401Z" fill="black"/>
<path opacity="0.2" d="M159.773 462.401H162.145V453.914H159.773V462.401Z" fill="black"/>
<path opacity="0.2" d="M155.42 462.401H156.605V453.914H155.42V462.401Z" fill="black"/>
<path opacity="0.2" d="M148.251 462.401H148.85V453.914H148.251V462.401Z" fill="black"/>
<path d="M176.284 445.472H133.039V453.959H176.284V445.472Z" fill="#C53F3F"/>
<path opacity="0.2" d="M176.283 445.472H166.754V453.959H176.283V445.472Z" fill="black"/>
<path opacity="0.2" d="M162.178 453.959H165.646V445.472H162.178V453.959Z" fill="black"/>
<path opacity="0.2" d="M157.736 453.959H160.107V445.472H157.736V453.959Z" fill="black"/>
<path opacity="0.2" d="M153.381 453.959H154.566V445.472H153.381V453.959Z" fill="black"/>
<path opacity="0.2" d="M146.212 453.959H146.811V445.472H146.212V453.959Z" fill="black"/>
<path d="M180.15 437.028H136.904V445.516H180.15V437.028Z" fill="#C53F3F"/>
<path opacity="0.2" d="M180.15 437.028H170.621V445.516H180.15V437.028Z" fill="black"/>
<path opacity="0.2" d="M166.046 445.516H169.514V437.028H166.046V445.516Z" fill="black"/>
<path opacity="0.2" d="M161.602 445.516H163.973V437.028H161.602V445.516Z" fill="black"/>
<path opacity="0.2" d="M157.248 445.516H158.434V437.028H157.248V445.516Z" fill="black"/>
<path opacity="0.2" d="M150.079 445.516H150.678V437.028H150.079V445.516Z" fill="black"/>
<path d="M178.321 428.586H135.076V437.073H178.321V428.586Z" fill="#C53F3F"/>
<path opacity="0.2" d="M178.322 428.586H168.793V437.073H178.322V428.586Z" fill="black"/>
<path opacity="0.2" d="M164.218 437.073H167.686V428.586H164.218V437.073Z" fill="black"/>
<path opacity="0.2" d="M159.773 437.073H162.145V428.586H159.773V437.073Z" fill="black"/>
<path opacity="0.2" d="M155.42 437.073H156.605V428.586H155.42V437.073Z" fill="black"/>
<path opacity="0.2" d="M148.251 437.073H148.85V428.586H148.251V437.073Z" fill="black"/>
<path d="M177.214 420.143H133.969V428.63H177.214V420.143Z" fill="#C53F3F"/>
<path opacity="0.2" d="M177.214 420.143H167.686V428.63H177.214V420.143Z" fill="black"/>
<path opacity="0.2" d="M163.11 428.63H166.578V420.143H163.11V428.63Z" fill="black"/>
<path opacity="0.2" d="M158.666 428.63H161.037V420.143H158.666V428.63Z" fill="black"/>
<path opacity="0.2" d="M154.312 428.63H155.498V420.143H154.312V428.63Z" fill="black"/>
<path opacity="0.2" d="M147.144 428.63H147.742V420.143H147.144V428.63Z" fill="black"/>
<path d="M178.321 411.699H135.076V420.187H178.321V411.699Z" fill="#C53F3F"/>
<path opacity="0.2" d="M178.322 411.699H168.793V420.187H178.322V411.699Z" fill="black"/>
<path opacity="0.2" d="M164.218 420.187H167.686V411.699H164.218V420.187Z" fill="black"/>
<path opacity="0.2" d="M159.773 420.187H162.145V411.699H159.773V420.187Z" fill="black"/>
<path opacity="0.2" d="M155.42 420.187H156.605V411.699H155.42V420.187Z" fill="black"/>
<path opacity="0.2" d="M148.251 420.187H148.85V411.699H148.251V420.187Z" fill="black"/>
<path d="M178.321 403.257H135.076V411.744H178.321V403.257Z" fill="#C53F3F"/>
<path opacity="0.2" d="M178.322 403.257H168.793V411.744H178.322V403.257Z" fill="black"/>
<path opacity="0.2" d="M164.218 411.744H167.686V403.257H164.218V411.744Z" fill="black"/>
<path opacity="0.2" d="M159.773 411.744H162.145V403.257H159.773V411.744Z" fill="black"/>
<path opacity="0.2" d="M155.42 411.744H156.605V403.257H155.42V411.744Z" fill="black"/>
<path opacity="0.2" d="M148.251 411.744H148.85V403.257H148.251V411.744Z" fill="black"/>
<path d="M176.107 394.813H132.861V403.301H176.107V394.813Z" fill="#C53F3F"/>
<path opacity="0.2" d="M176.107 394.813H166.578V403.301H176.107V394.813Z" fill="black"/>
<path opacity="0.2" d="M162.001 403.301H165.469V394.813H162.001V403.301Z" fill="black"/>
<path opacity="0.2" d="M157.559 403.301H159.93V394.813H157.559V403.301Z" fill="black"/>
<path opacity="0.2" d="M153.203 403.301H154.389V394.813H153.203V403.301Z" fill="black"/>
<path opacity="0.2" d="M146.034 403.301H146.633V394.813H146.034V403.301Z" fill="black"/>
<path d="M178.321 386.371H135.076V394.858H178.321V386.371Z" fill="#C53F3F"/>
<path opacity="0.2" d="M178.322 386.371H168.793V394.858H178.322V386.371Z" fill="black"/>
<path opacity="0.2" d="M164.218 394.858H167.686V386.371H164.218V394.858Z" fill="black"/>
<path opacity="0.2" d="M159.773 394.858H162.145V386.371H159.773V394.858Z" fill="black"/>
<path opacity="0.2" d="M155.42 394.858H156.605V386.371H155.42V394.858Z" fill="black"/>
<path opacity="0.2" d="M148.251 394.858H148.85V386.371H148.251V394.858Z" fill="black"/>
<path d="M180.538 377.928H137.293V386.415H180.538V377.928Z" fill="#C53F3F"/>
<path opacity="0.2" d="M180.539 377.928H171.01V386.415H180.539V377.928Z" fill="black"/>
<path opacity="0.2" d="M166.434 386.415H169.902V377.928H166.434V386.415Z" fill="black"/>
<path opacity="0.2" d="M161.99 386.415H164.361V377.928H161.99V386.415Z" fill="black"/>
<path opacity="0.2" d="M157.637 386.415H158.822V377.928H157.637V386.415Z" fill="black"/>
<path opacity="0.2" d="M150.466 386.415H151.064V377.928H150.466V386.415Z" fill="black"/>
<path d="M142.224 453.914H98.9785V462.401H142.224V453.914Z" fill="#C53F3F"/>
<path opacity="0.2" d="M142.234 453.914H132.705V462.401H142.234V453.914Z" fill="black"/>
<path opacity="0.2" d="M128.13 462.401H131.598V453.914H128.13V462.401Z" fill="black"/>
<path opacity="0.2" d="M123.687 462.401H126.059V453.914H123.687V462.401Z" fill="black"/>
<path opacity="0.2" d="M119.332 462.401H120.518V453.914H119.332V462.401Z" fill="black"/>
<path opacity="0.2" d="M112.152 462.401H112.75V453.914H112.152V462.401Z" fill="black"/>
<path d="M140.007 445.472H96.7617V453.959H140.007V445.472Z" fill="#C53F3F"/>
<path opacity="0.2" d="M140.019 445.472H130.49V453.959H140.019V445.472Z" fill="black"/>
<path opacity="0.2" d="M125.913 453.959H129.381V445.472H125.913V453.959Z" fill="black"/>
<path opacity="0.2" d="M121.471 453.959H123.842V445.472H121.471V453.959Z" fill="black"/>
<path opacity="0.2" d="M117.117 453.959H118.303V445.472H117.117V453.959Z" fill="black"/>
<path opacity="0.2" d="M109.937 453.959H110.535V445.472H109.937V453.959Z" fill="black"/>
<path d="M142.224 437.028H98.9785V445.516H142.224V437.028Z" fill="#C53F3F"/>
<path opacity="0.2" d="M142.234 437.028H132.705V445.516H142.234V437.028Z" fill="black"/>
<path opacity="0.2" d="M128.13 445.516H131.598V437.028H128.13V445.516Z" fill="black"/>
<path opacity="0.2" d="M123.687 445.516H126.059V437.028H123.687V445.516Z" fill="black"/>
<path opacity="0.2" d="M119.332 445.516H120.518V437.028H119.332V445.516Z" fill="black"/>
<path opacity="0.2" d="M112.152 445.516H112.75V437.028H112.152V445.516Z" fill="black"/>
<path d="M141.116 428.586H97.8711V437.073H141.116V428.586Z" fill="#C53F3F"/>
<path opacity="0.2" d="M141.126 428.586H131.598V437.073H141.126V428.586Z" fill="black"/>
<path opacity="0.2" d="M127.022 437.073H130.49V428.586H127.022V437.073Z" fill="black"/>
<path opacity="0.2" d="M122.578 437.073H124.949V428.586H122.578V437.073Z" fill="black"/>
<path opacity="0.2" d="M118.225 437.073H119.41V428.586H118.225V437.073Z" fill="black"/>
<path opacity="0.2" d="M111.044 437.073H111.643V428.586H111.044V437.073Z" fill="black"/>
<path d="M142.224 420.143H98.9785V428.63H142.224V420.143Z" fill="#C53F3F"/>
<path opacity="0.2" d="M142.234 420.143H132.705V428.63H142.234V420.143Z" fill="black"/>
<path opacity="0.2" d="M128.13 428.63H131.598V420.143H128.13V428.63Z" fill="black"/>
<path opacity="0.2" d="M123.687 428.63H126.059V420.143H123.687V428.63Z" fill="black"/>
<path opacity="0.2" d="M119.332 428.63H120.518V420.143H119.332V428.63Z" fill="black"/>
<path opacity="0.2" d="M112.152 428.63H112.75V420.143H112.152V428.63Z" fill="black"/>
<path d="M138.9 411.699H95.6543V420.187H138.9V411.699Z" fill="#C53F3F"/>
<path opacity="0.2" d="M138.91 411.699H129.381V420.187H138.91V411.699Z" fill="black"/>
<path opacity="0.2" d="M124.805 420.187H128.273V411.699H124.805V420.187Z" fill="black"/>
<path opacity="0.2" d="M120.363 420.187H122.734V411.699H120.363V420.187Z" fill="black"/>
<path opacity="0.2" d="M116.008 420.187H117.193V411.699H116.008V420.187Z" fill="black"/>
<path opacity="0.2" d="M108.827 420.187H109.426V411.699H108.827V420.187Z" fill="black"/>
<path d="M359.623 403.223L365.318 462.402H329.374L311.402 420.353C311.402 420.353 336.831 399.356 359.623 403.223Z" fill="#C53F3F"/>
<path d="M428.441 385.584L438.413 462.357H402.503L380.975 411.987C380.975 411.987 392.941 385.351 428.441 385.584Z" fill="#C53F3F"/>
<path opacity="0.2" d="M359.623 403.223L365.318 462.402H329.374L311.402 420.353C311.402 420.353 336.831 399.356 359.623 403.223Z" fill="white"/>
<path opacity="0.2" d="M428.441 385.584L438.413 462.357H402.503L380.975 411.987C380.975 411.987 392.941 385.351 428.441 385.584Z" fill="white"/>
<path opacity="0.2" d="M365.318 462.402H329.374L311.402 420.353C311.402 420.353 336.831 399.357 359.623 403.235L363.501 443.577L365.318 462.402Z" fill="black"/>
<path opacity="0.2" d="M438.447 462.401H402.503L380.975 412.032C380.975 412.032 392.941 385.351 428.441 385.628L431.012 405.439L438.447 462.401Z" fill="black"/>
<path opacity="0.2" d="M363.501 443.577C352.315 448.229 340.758 451.935 328.953 454.657L329.374 462.413L311.402 420.364C311.402 420.364 336.831 399.367 359.623 403.245L363.501 443.577Z" fill="black"/>
<path opacity="0.2" d="M394.747 428.519L402.503 462.401L380.975 412.032C380.975 412.032 392.941 385.351 428.441 385.628L431.012 405.439C419.388 413.839 407.279 421.546 394.747 428.519Z" fill="black"/>
<path d="M322.837 429.649C381.711 429.649 429.438 391.62 429.438 344.71C429.438 297.799 381.711 259.771 322.837 259.771C263.963 259.771 216.236 297.799 216.236 344.71C216.236 391.62 263.963 429.649 322.837 429.649Z" fill="#C53F3F"/>
<path opacity="0.2" d="M429.438 344.71C429.438 346.815 429.339 348.909 429.15 350.981C427.377 370.305 417.494 387.8 402.204 401.428C382.692 418.757 354.36 429.66 322.838 429.66C263.97 429.66 216.248 391.622 216.248 344.71C216.248 343.779 216.248 342.859 216.315 341.94C218.143 296.312 265.133 259.771 322.838 259.771C349.286 259.771 373.473 267.438 392.099 280.136C414.957 295.725 429.438 318.871 429.438 344.71Z" fill="white"/>
<path opacity="0.2" d="M409.26 394.447C409.792 393.86 410.368 393.273 410.834 392.675L411.942 391.345C412.418 390.769 412.895 390.182 413.349 389.583L414.457 388.187C414.9 387.589 415.321 386.991 415.753 386.392C416.185 385.794 416.429 385.439 416.762 384.952C417.094 384.464 417.592 383.678 417.991 383.046C418.39 382.415 418.601 382.115 418.889 381.639C419.476 380.675 419.997 379.7 420.573 378.714C420.872 378.16 421.16 377.606 421.448 377.041C421.736 376.476 422.169 375.656 422.501 374.947C422.833 374.238 423 373.839 423.243 373.318C423.487 372.797 423.808 372.055 424.074 371.423C424.34 370.792 424.517 370.315 424.739 369.706C424.961 369.096 425.227 368.443 425.448 367.811C425.67 367.18 425.847 366.703 426.035 366.072C426.224 365.44 426.445 364.764 426.645 364.11C426.844 363.457 426.977 363.002 427.121 362.382C427.265 361.761 427.476 360.997 427.642 360.299C427.808 359.601 427.897 359.191 428.008 358.648C428.174 357.861 428.307 357.064 428.451 356.266C428.528 355.8 428.617 355.324 428.695 354.859C428.883 353.584 429.038 352.299 429.16 351.014C429.348 348.942 429.448 346.848 429.448 344.743C429.448 318.904 414.967 295.758 392.109 280.168C379.367 275.171 359.976 295.891 358.148 325.419C356.63 350.438 368.286 375.911 385.56 391.079C364.409 412.464 327.213 424.674 286.261 415.023C242.817 404.774 218.141 364.997 216.324 341.973C216.324 342.892 216.258 343.812 216.258 344.743C216.258 391.655 263.979 429.693 322.847 429.693C354.37 429.693 382.679 418.779 402.202 401.45L402.335 401.317C402.513 401.173 402.679 401.007 402.845 400.852C403.687 400.087 404.518 399.323 405.316 398.536L406.324 397.528C406.945 396.907 407.554 396.287 408.152 395.655C408.529 395.234 408.85 394.824 409.26 394.447Z" fill="black"/>
<path opacity="0.2" d="M367.623 270.02L360.975 271.438L353.739 272.989C329.075 263.438 300.4 266.086 286.971 268.136C282.462 268.834 279.659 269.455 279.293 269.543L292.179 264.413C337.175 254.707 367.623 270.02 367.623 270.02Z" fill="black"/>
<path opacity="0.2" d="M360.985 271.46L353.75 273.011C329.075 263.438 300.4 266.086 286.971 268.136L292.2 266.053C324.643 259.471 349.606 266.817 360.985 271.46Z" fill="black"/>
<path d="M414.246 289.188C414.246 289.188 422.423 273.498 449.015 268.49C449.015 268.49 453.115 269.343 449.015 273.277C449.015 273.277 449.89 294.517 446.389 305.409C442.888 316.3 414.246 289.188 414.246 289.188Z" fill="#C53F3F"/>
<path opacity="0.2" d="M449.015 273.277C449.015 273.277 449.89 294.518 446.389 305.409C446.261 305.802 446.078 306.175 445.846 306.517C445.431 307.103 444.856 307.556 444.19 307.824C443.524 308.091 442.795 308.16 442.09 308.024C442.649 307.209 443.086 306.317 443.387 305.376C443.542 304.933 443.697 304.434 443.83 303.902C448.262 287.038 442.301 278.596 442.301 278.596L445.148 275.161C429.437 280.446 425.858 295.57 425.858 295.57L426.113 296.035C427.313 298.148 428.623 300.197 430.035 302.174C424.494 298.194 419.22 293.856 414.246 289.188C414.246 289.188 422.423 273.488 449.015 268.479C449.015 268.479 450.888 268.867 450.832 270.341C450.609 271.51 449.962 272.556 449.015 273.277Z" fill="white"/>
<path opacity="0.2" d="M449.015 273.277C449.015 273.277 449.891 294.517 446.389 305.409C446.261 305.802 446.078 306.175 445.846 306.517L443.387 305.298C438.135 302.65 431.442 299.149 426.113 295.957C422.701 293.885 419.654 291.264 417.094 288.201C419.698 286.13 427.83 286.13 427.83 286.13C435.066 277.155 450.832 270.285 450.832 270.285C450.622 271.474 449.974 272.542 449.015 273.277Z" fill="black"/>
<path d="M467.819 331.214L461.015 332.001C455.985 305.797 435.742 286.196 411.532 286.196C383.522 286.196 360.83 312.389 360.83 344.71C360.83 377.03 383.522 403.223 411.532 403.223C430.091 403.223 446.312 391.711 455.154 374.526C455.154 374.526 481.502 362.249 482.5 356.632L467.819 331.214Z" fill="#C53F3F"/>
<path opacity="0.2" d="M482.5 356.632C481.502 362.25 455.154 374.526 455.154 374.526C446.29 391.7 430.091 403.224 411.532 403.224C383.522 403.224 360.83 377.019 360.83 344.699V344.311C360.93 326.772 367.722 311.071 378.403 300.401C384.643 294.058 392.515 289.563 401.15 287.415C404.55 286.596 408.035 286.183 411.532 286.186C433.692 286.186 452.473 302.562 459.387 325.376C460.048 327.561 460.591 329.78 461.015 332.024L467.819 331.237L482.5 356.632Z" fill="white"/>
<path opacity="0.2" d="M402.413 302.317C399.377 310.539 384.031 303.37 378.402 300.412C384.642 294.068 392.515 289.574 401.15 287.426C402.945 291.404 404.418 296.944 402.413 302.317Z" fill="black"/>
<path opacity="0.2" d="M461.015 332.001C461.015 332.001 450.844 331.569 445.148 340.622C445.148 340.622 449.425 328.301 459.386 325.387C460.046 327.561 460.59 329.769 461.015 332.001Z" fill="black"/>
<path opacity="0.2" d="M455.154 374.504C446.29 391.678 430.091 403.201 411.532 403.201C383.522 403.201 360.83 376.997 360.83 344.677V344.289C364.597 365.097 377.938 385.385 397.804 393.041C422.789 402.692 433.969 388 433.969 388C431.348 387.276 428.97 385.86 427.085 383.901C425.2 381.942 423.877 379.511 423.255 376.864C435.941 381.684 455.154 374.504 455.154 374.504Z" fill="black"/>
<path d="M467.818 331.214C473.292 331.214 483.818 348.078 482.499 356.631C481.181 365.185 450.279 367.157 447.198 358.847C445.038 353.019 461.458 331.214 467.818 331.214Z" fill="#C53F3F"/>
<path opacity="0.6" d="M467.818 331.214C473.292 331.214 483.818 348.078 482.499 356.631C481.181 365.185 450.279 367.157 447.198 358.847C445.038 353.019 461.458 331.214 467.818 331.214Z" fill="white"/>
<path opacity="0.3" d="M464.539 353.452C463.863 356.244 462.134 358.216 460.683 357.884C459.231 357.551 458.611 354.992 459.287 352.211C459.963 349.429 461.68 347.446 463.132 347.779C464.583 348.111 465.215 350.615 464.539 353.452Z" fill="black"/>
<path opacity="0.3" d="M474.83 357.682C476.319 357.569 477.351 355.163 477.135 352.307C476.918 349.452 475.536 347.228 474.047 347.341C472.559 347.454 471.527 349.86 471.743 352.716C471.959 355.571 473.342 357.795 474.83 357.682Z" fill="black"/>
<path d="M419.686 340.621C419.686 343.846 418.091 346.461 416.119 346.461C414.146 346.461 412.551 343.846 412.551 340.621C412.551 337.397 414.146 334.782 416.119 334.782C418.091 334.782 419.686 337.397 419.686 340.621Z" fill="#263238"/>
<path d="M367.634 318.683C367.634 318.683 366.603 286.883 386.858 268.934C386.858 268.934 390.813 267.571 389.317 273.044C389.317 273.044 400.974 290.828 403.566 301.997C406.159 313.165 367.634 318.683 367.634 318.683Z" fill="#C53F3F"/>
<path opacity="0.2" d="M367.634 318.683C367.634 318.683 366.603 286.883 386.858 268.934C386.858 268.934 390.813 267.571 389.317 273.044C389.317 273.044 400.974 290.828 403.566 301.997C406.159 313.165 367.634 318.683 367.634 318.683Z" fill="white"/>
<path d="M387.201 277C387.201 277 378.735 294.828 379.445 312.057C379.445 312.057 393.682 309.132 399.167 298.617C399.123 298.617 395.444 285.864 387.201 277Z" fill="#C53F3F"/>
<path d="M301.597 403.223L295.891 462.402H331.834L349.806 420.353C349.806 420.353 324.388 399.356 301.597 403.223Z" fill="#C53F3F"/>
<path d="M232.779 385.584L222.807 462.357H258.75L276.722 420.309C276.722 420.309 268.279 385.351 232.779 385.584Z" fill="#C53F3F"/>
<path opacity="0.2" d="M349.806 420.353L331.834 462.402H295.891L301.597 403.235C310.738 401.683 320.289 404.121 328.466 407.611C336.094 410.931 343.265 415.213 349.806 420.353Z" fill="white"/>
<path opacity="0.2" d="M276.677 420.352L258.705 462.401H222.762L232.734 385.628C244.922 385.528 253.908 389.594 260.434 394.968C273.054 405.262 276.677 420.352 276.677 420.352Z" fill="white"/>
<path opacity="0.2" d="M276.677 420.353L258.705 462.401H222.762L232.734 385.628L226.152 458.302H253.73L270.472 417.184C270.472 417.184 269.364 407.09 260.5 395.024C273.054 405.262 276.677 420.353 276.677 420.353Z" fill="black"/>
<path opacity="0.2" d="M349.806 420.353L331.834 462.402H295.891L301.597 403.234L298.528 458.302H327.624L338.903 422.148C338.903 422.148 337.23 415.256 328.466 407.589C336.095 410.915 343.266 415.205 349.806 420.353Z" fill="black"/>
<path d="M214.043 222.841C206.941 224.979 204.071 251.161 199.928 261.189C195.784 271.216 187.219 291.105 187.219 291.105L190.543 294.573C190.543 294.573 205.235 270.197 207.163 266.551C209.091 262.906 217.766 235.527 217.766 235.527L214.043 222.841Z" fill="#E4897B"/>
<path d="M214.044 222.841C209.789 224.026 208.049 224.093 201.978 254.807L188.748 285.243L195.008 289.188C195.008 289.188 208.548 265.709 211.628 259.77C214.708 253.832 218.343 230.342 218.343 230.342L214.044 222.841Z" fill="#C53F3F"/>
<path opacity="0.4" d="M218.377 230.353C218.377 230.353 217.091 238.718 215.396 246.718C214.288 252.125 212.903 257.377 211.662 259.77C210.942 261.155 209.657 263.482 208.105 266.252C207.263 267.759 206.333 269.399 205.38 271.083C200.549 279.57 195.009 289.187 195.009 289.187L188.727 285.232L201.978 254.839C208.05 224.137 209.79 224.059 214.044 222.885L218.377 230.353Z" fill="white"/>
<path opacity="0.2" d="M215.396 246.718C214.288 252.125 212.903 257.377 211.662 259.77C210.942 261.155 209.656 263.482 208.105 266.252C206.122 251.848 210.897 237.61 210.897 237.61C212.814 239.184 214.31 242.53 215.396 246.718Z" fill="black"/>
<path d="M194.521 254.496H190.41C178.677 254.496 169.17 265.643 169.17 279.393C169.17 293.143 178.677 304.279 190.41 304.279H194.521C206.244 304.279 215.761 293.132 215.761 279.393C215.761 265.654 206.244 254.496 194.521 254.496Z" fill="#C53F3F"/>
<path opacity="0.2" d="M194.521 254.496H190.41C178.677 254.496 169.17 265.643 169.17 279.393C169.17 293.143 178.677 304.279 190.41 304.279H194.521C206.244 304.279 215.761 293.132 215.761 279.393C215.761 265.654 206.244 254.496 194.521 254.496Z" fill="black"/>
<path d="M194.522 304.29C206.252 304.29 215.762 293.143 215.762 279.393C215.762 265.643 206.252 254.496 194.522 254.496C182.791 254.496 173.281 265.643 173.281 279.393C173.281 293.143 182.791 304.29 194.522 304.29Z" fill="#C53F3F"/>
<path opacity="0.2" d="M194.521 299.98C204.22 299.98 212.083 290.763 212.083 279.393C212.083 268.024 204.22 258.807 194.521 258.807C184.822 258.807 176.959 268.024 176.959 279.393C176.959 290.763 184.822 299.98 194.521 299.98Z" fill="black"/>
<path d="M195.74 290.174V293.553H193.635V290.229C191.311 290.128 189.09 289.246 187.33 287.725L188.493 284.678C189.919 285.972 191.72 286.775 193.635 286.972V280.944C190.776 280.135 187.718 279.049 187.718 274.861C187.718 271.792 189.624 269.111 193.635 268.656V265.255H195.74V268.579C197.619 268.684 199.429 269.322 200.958 270.418L199.85 273.465C198.609 272.602 197.182 272.044 195.684 271.836V277.919C198.532 278.739 201.645 279.792 201.645 283.98C201.657 287.038 199.773 289.686 195.74 290.174ZM193.635 277.277V271.914C192.93 271.948 192.266 272.253 191.781 272.765C191.296 273.277 191.027 273.957 191.031 274.662C191.031 276.102 192.139 276.767 193.635 277.277ZM198.41 284.235C198.41 282.761 197.302 282.074 195.74 281.554V286.894C197.612 286.562 198.41 285.531 198.41 284.235Z" fill="#C53F3F"/>
<path d="M241.223 385.307L238.409 390.692C238.409 390.692 235.993 389.407 232.148 387.301C231.04 386.703 229.833 386.038 228.525 385.307C224.891 383.313 220.526 380.875 215.916 378.271L212.902 376.543C196.914 367.38 179.33 356.599 179.33 353.574C179.33 350.25 189.634 330.417 197.878 315.082C203.418 304.844 207.972 296.601 207.972 296.601L227.55 308.589C227.55 308.589 220.902 317.509 214.044 327.325C206.077 338.771 197.889 351.436 199.762 352.699C201.191 353.652 208.47 359.347 216.526 365.718L217.988 366.826C222.332 370.26 226.852 373.817 230.686 376.897L233.81 379.368L241.223 385.307Z" fill="#E4897B"/>
<path opacity="0.2" d="M227.551 308.589C227.551 308.589 218.366 320.999 211.53 330.816L196.018 318.55C201.558 308.312 208.006 296.601 208.006 296.601L227.551 308.589Z" fill="black"/>
<path opacity="0.2" d="M233.789 379.412L232.127 387.301C227.318 384.675 220.271 380.786 212.881 376.542C214.133 372.73 215.573 368.442 216.504 365.717C222.543 370.459 229.002 375.611 233.789 379.412Z" fill="black"/>
<path d="M249.854 318.55L246.087 330.051L245.312 332.411L239.561 349.917L238.907 351.923L235.107 363.479L230.675 376.941L228.636 383.157C228.636 383.866 228.57 384.587 228.514 385.307C226.575 415.034 211.097 453.903 211.097 453.903L205.557 452.396C207.518 429.04 211.717 401.827 215.894 378.271C216.592 374.36 217.279 370.515 217.966 366.87C218.354 364.809 218.731 362.781 219.074 360.809C219.872 356.632 220.625 352.676 221.368 348.998C221.722 347.247 222.055 345.574 222.376 343.945C223.185 339.934 223.916 336.355 224.592 333.286C225.268 330.217 225.755 327.68 226.177 325.741C226.786 322.904 227.129 321.309 227.129 321.309L249.854 318.55Z" fill="#E4897B"/>
<path d="M234.563 379.545C233.843 379.545 234.275 388.409 234.275 388.409C234.275 388.409 239.704 393.949 240.868 399.201C242.031 404.453 245.233 401.595 245.3 395.7C245.366 389.806 245.455 385.318 245.521 381.141C245.588 376.964 241.998 379.479 234.563 379.545Z" fill="#263238"/>
<path d="M236.238 393.816C236.12 393.941 235.967 394.028 235.798 394.064C235.63 394.099 235.455 394.082 235.296 394.015C235.17 393.98 235.051 393.92 234.948 393.838C234.846 393.756 234.76 393.655 234.698 393.539C234.456 392.907 234.395 392.22 234.521 391.556C234.122 392.265 233.645 392.885 233.18 392.907C232.881 392.907 232.637 392.719 232.449 392.32C232.372 392.146 232.332 391.957 232.332 391.766C232.332 391.575 232.372 391.387 232.449 391.212C232.969 390.027 235.03 389.318 235.119 389.284C235.176 389.262 235.239 389.262 235.296 389.284H235.352C235.357 389.31 235.357 389.336 235.352 389.362C235.931 390.511 236.306 391.752 236.46 393.029C236.477 393.309 236.399 393.586 236.238 393.816ZM235.13 393.317C235.161 393.379 235.205 393.434 235.258 393.477C235.312 393.521 235.374 393.554 235.44 393.572C235.784 393.661 235.872 393.572 235.906 393.572C236.249 393.162 235.784 391.545 235.263 390.248C234.927 391.245 234.873 392.315 235.108 393.34L235.13 393.317ZM232.914 392.121C232.914 392.243 233.08 392.453 233.202 392.442C233.601 392.442 234.31 391.179 234.82 389.883C234.035 390.153 233.361 390.675 232.903 391.367C232.846 391.477 232.816 391.598 232.814 391.722C232.805 391.858 232.828 391.995 232.881 392.121H232.914Z" fill="#C53F3F"/>
<path d="M212.737 451.399C212.737 450.679 203.873 451.244 203.873 451.244C203.873 451.244 198.444 456.784 193.181 458.003C187.918 459.222 190.854 462.435 196.738 462.435H211.308C215.474 462.402 212.859 458.834 212.737 451.399Z" fill="#263238"/>
<path d="M198.432 453.293C198.305 453.177 198.216 453.024 198.178 452.856C198.141 452.687 198.156 452.511 198.222 452.352C198.252 452.225 198.309 452.105 198.39 452.002C198.47 451.899 198.571 451.814 198.687 451.753C199.315 451.499 200.001 451.423 200.67 451.532C199.95 451.155 199.318 450.69 199.296 450.224C199.296 449.925 199.474 449.67 199.872 449.482C200.047 449.405 200.236 449.365 200.426 449.365C200.617 449.365 200.806 449.405 200.98 449.482C202.177 449.98 202.919 452.041 202.953 452.13C202.975 452.187 202.975 452.25 202.953 452.307C202.932 452.335 202.906 452.358 202.875 452.374C201.73 452.952 200.492 453.327 199.219 453.482C198.943 453.509 198.666 453.442 198.432 453.293ZM198.92 452.185C198.858 452.217 198.803 452.26 198.76 452.314C198.716 452.367 198.683 452.429 198.665 452.496C198.576 452.839 198.665 452.928 198.665 452.961C199.086 453.304 200.703 452.817 201.989 452.263C200.994 451.953 199.934 451.915 198.92 452.152V452.185ZM200.028 449.969C199.906 450.025 199.706 450.147 199.717 450.269C199.717 450.656 201.003 451.377 202.299 451.842C202.016 451.063 201.487 450.398 200.792 449.947C200.679 449.902 200.559 449.876 200.438 449.87C200.315 449.856 200.19 449.868 200.072 449.903L200.028 449.969Z" fill="#C53F3F"/>
<path opacity="0.7" d="M218.985 324.921L217.711 326.117L198.676 313.209L201.08 307.337C201.047 309.403 201.35 311.462 201.978 313.431C203.019 315.891 215.628 323.048 218.985 324.921Z" fill="white"/>
<path opacity="0.2" d="M249.854 318.55L245.311 332.4C234.907 334.871 228.957 333.308 224.625 333.275C225.257 330.217 225.788 327.669 226.209 325.73C226.819 322.893 227.162 321.298 227.162 321.298L249.854 318.55Z" fill="black"/>
<path d="M249.577 326.338C249.344 328.167 249.056 330.039 248.724 331.945L223.306 331.047V320.843L214.83 330.183L195.994 314.893L209.091 287.791L210.775 270.717L244.979 274.351C244.979 274.351 253.732 294.838 249.577 326.338Z" fill="#263238"/>
<path d="M244.624 269.498L209.988 266.507V272.435L245.444 275.57L244.624 269.498Z" fill="black"/>
<path d="M219.65 269.132V271.88C219.649 272.418 219.849 272.937 220.213 273.333C220.576 273.729 221.076 273.974 221.612 274.019L225.933 274.406H226.121C226.657 274.4 227.173 274.199 227.573 273.841C227.789 273.638 227.963 273.392 228.083 273.12C228.203 272.848 228.267 272.554 228.271 272.257V269.487C228.272 268.949 228.072 268.43 227.708 268.034C227.345 267.638 226.845 267.393 226.309 267.348L221.977 266.972C221.68 266.946 221.38 266.983 221.097 267.081C220.815 267.178 220.556 267.333 220.337 267.537C220.121 267.743 219.949 267.99 219.831 268.264C219.713 268.539 219.652 268.834 219.65 269.132ZM220.758 271.88V270.972L221.966 271.06C222.062 271.068 222.159 271.056 222.25 271.026C222.342 270.996 222.426 270.948 222.499 270.885C222.572 270.822 222.632 270.746 222.676 270.66C222.719 270.574 222.746 270.48 222.753 270.384C222.76 270.288 222.748 270.192 222.718 270.1C222.688 270.009 222.641 269.924 222.578 269.851C222.515 269.778 222.438 269.718 222.353 269.675C222.267 269.631 222.173 269.605 222.077 269.598L220.869 269.498H220.703V269.088C220.7 268.942 220.728 268.798 220.785 268.664C220.843 268.53 220.928 268.41 221.035 268.312C221.227 268.141 221.476 268.046 221.733 268.046H221.833L226.154 268.423C226.414 268.443 226.657 268.56 226.833 268.751C227.01 268.942 227.108 269.193 227.107 269.454V272.224C227.107 272.368 227.076 272.511 227.017 272.642C226.958 272.774 226.871 272.892 226.764 272.988C226.66 273.087 226.536 273.162 226.4 273.208C226.264 273.254 226.12 273.27 225.977 273.254L221.645 272.877C221.404 272.841 221.183 272.722 221.021 272.539C220.859 272.357 220.766 272.124 220.758 271.88Z" fill="white"/>
<path d="M214.043 222.84C214.043 222.84 235.284 221.245 250.696 227.605L244.624 269.498L211.761 266.506C211.761 266.506 210.897 235.294 214.043 222.84Z" fill="#C53F3F"/>
<path d="M237.478 224.924C237.478 224.924 235.616 228.946 228.004 231.217C228.004 231.217 223.805 229.001 225.002 225.323C225.002 225.323 227.428 224.902 226.752 219.096C226.752 218.941 226.73 218.774 226.686 218.597C226.466 217.143 226.159 215.704 225.766 214.287L234.841 210.963C234.841 210.963 232.558 218.375 235.838 223.151C236.285 223.827 236.839 224.425 237.478 224.924Z" fill="#E4897B"/>
<path opacity="0.2" d="M235.837 223.118C232.398 222.993 229.141 221.539 226.752 219.062C226.752 218.907 226.73 218.741 226.685 218.564C226.466 217.11 226.159 215.671 225.766 214.254L234.84 210.93C234.84 210.93 232.558 218.331 235.837 223.118Z" fill="black"/>
<path d="M225.966 189.789C225.966 189.789 223.484 177.401 210.72 179.883C197.956 182.365 203.906 199.827 206.51 205.246C209.114 210.664 209.479 215.218 206.388 217.666C206.388 217.666 210.598 218.874 212.825 215.982C212.825 215.982 212.703 218.652 211.219 219.771C211.219 219.771 224.049 215.184 220.792 200.193C217.534 185.202 225.966 189.789 225.966 189.789Z" fill="#263238"/>
<path d="M239.594 188.802C239.594 188.802 246.031 189.046 247.76 194.498C249.488 199.949 248.125 206.043 238.53 212.547C228.935 219.051 220.88 212.658 217.168 208.226C213.456 203.794 215.307 188.769 225.965 186.985C236.624 185.201 239.594 188.802 239.594 188.802Z" fill="#263238"/>
<path d="M233.446 190.576C241.623 191.761 243.617 196.515 242.997 204.98C242.221 215.606 238.82 222.708 228.925 219.029C215.496 213.988 219.884 188.604 233.446 190.576Z" fill="#E4897B"/>
<path d="M237.778 203.783C238.26 205.098 238.896 206.351 239.672 207.517C239.383 207.819 239.016 208.036 238.611 208.143C238.207 208.251 237.78 208.245 237.379 208.127L237.778 203.783Z" fill="#DE5753"/>
<path d="M232.88 202.398C232.802 203.063 232.37 203.572 231.916 203.506C231.461 203.439 231.173 202.863 231.251 202.187C231.328 201.511 231.761 201.013 232.215 201.079C232.669 201.146 232.957 201.722 232.88 202.398Z" fill="#263238"/>
<path d="M232.027 201.09L233.556 200.691C233.556 200.691 232.681 201.833 232.027 201.09Z" fill="#263238"/>
<path d="M241.268 203.262C241.191 203.938 240.759 204.436 240.304 204.37C239.85 204.303 239.562 203.727 239.64 203.051C239.717 202.376 240.149 201.877 240.603 201.943C241.058 202.01 241.346 202.586 241.268 203.262Z" fill="#263238"/>
<path d="M240.436 201.955L241.965 201.556C241.965 201.556 241.067 202.697 240.436 201.955Z" fill="#263238"/>
<path d="M229.888 197.856C229.78 197.853 229.677 197.81 229.6 197.734C229.528 197.659 229.488 197.56 229.488 197.457C229.488 197.353 229.528 197.254 229.6 197.18C230.174 196.736 230.842 196.431 231.554 196.288C232.265 196.146 232.999 196.171 233.7 196.36C233.797 196.393 233.879 196.461 233.928 196.552C233.977 196.642 233.991 196.747 233.966 196.847C233.953 196.897 233.93 196.943 233.899 196.984C233.868 197.025 233.83 197.059 233.785 197.085C233.741 197.111 233.692 197.128 233.641 197.134C233.59 197.141 233.539 197.138 233.489 197.124C232.923 196.975 232.331 196.954 231.756 197.063C231.18 197.172 230.637 197.409 230.165 197.756C230.089 197.823 229.99 197.859 229.888 197.856Z" fill="#263238"/>
<path d="M242.764 198.785C242.666 198.786 242.572 198.75 242.498 198.686C242.137 198.312 241.697 198.024 241.21 197.842C240.723 197.66 240.202 197.589 239.684 197.633C239.634 197.645 239.582 197.646 239.531 197.637C239.48 197.628 239.432 197.609 239.389 197.581C239.345 197.553 239.308 197.517 239.279 197.475C239.25 197.432 239.229 197.384 239.219 197.334C239.207 197.284 239.206 197.232 239.215 197.181C239.224 197.13 239.243 197.082 239.271 197.039C239.298 196.995 239.335 196.958 239.377 196.929C239.419 196.9 239.467 196.879 239.518 196.869C240.156 196.797 240.803 196.87 241.409 197.083C242.015 197.296 242.566 197.643 243.019 198.099C243.081 198.15 243.126 198.219 243.147 198.297C243.168 198.375 243.164 198.457 243.136 198.533C243.108 198.608 243.057 198.673 242.99 198.718C242.924 198.764 242.845 198.787 242.764 198.785Z" fill="#263238"/>
<path d="M222.531 203.041C222.531 203.041 227.318 196.88 227.495 191.617C227.495 191.617 244.636 187.341 243.063 203.894C243.063 203.894 246.752 189.49 232.758 187.174C218.764 184.859 215.85 205.379 222.221 212.548C222.221 212.548 219.562 206.897 222.531 203.041Z" fill="#263238"/>
<path d="M223.617 204.979C223.675 204.032 223.36 203.1 222.738 202.384C222.117 201.667 221.239 201.222 220.293 201.146C217.712 201.057 215.761 206.087 221.878 208.248C222.709 208.536 223.34 207.716 223.617 204.979Z" fill="#E4897B"/>
<path d="M235.473 212.791C234.438 212.839 233.416 212.547 232.563 211.958C231.71 211.37 231.074 210.518 230.753 209.533C230.725 209.433 230.737 209.326 230.787 209.235C230.837 209.144 230.92 209.076 231.019 209.045C231.068 209.03 231.12 209.025 231.172 209.03C231.223 209.035 231.273 209.051 231.319 209.076C231.364 209.1 231.404 209.134 231.436 209.175C231.468 209.215 231.492 209.262 231.506 209.311C231.789 210.157 232.349 210.882 233.094 211.371C233.84 211.859 234.729 212.082 235.617 212.004C235.669 211.999 235.721 212.005 235.77 212.021C235.82 212.037 235.866 212.063 235.905 212.097C235.944 212.131 235.976 212.173 235.999 212.22C236.022 212.267 236.035 212.318 236.038 212.369C236.044 212.472 236.011 212.573 235.945 212.651C235.879 212.729 235.785 212.779 235.683 212.791H235.473Z" fill="#263238"/>
<path d="M238.53 185.545C238.53 185.545 243.76 183.473 243.539 188.182C243.317 192.891 223.484 204.525 213.445 203.783C213.445 203.783 216.171 203.074 217.046 201.888C215.765 199.379 215.43 196.493 216.101 193.757C216.772 191.02 218.406 188.617 220.703 186.986C231.129 178.764 238.53 185.545 238.53 185.545Z" fill="#263238"/>
<path d="M227.418 204.06C227.358 204.063 227.298 204.047 227.248 204.013C227.198 203.979 227.16 203.929 227.141 203.872C227.129 203.839 227.124 203.803 227.125 203.767C227.127 203.732 227.136 203.697 227.152 203.665C227.167 203.633 227.189 203.604 227.216 203.581C227.242 203.558 227.273 203.54 227.307 203.528C240.692 198.93 241.645 189.302 241.711 189.213C241.717 189.142 241.75 189.075 241.804 189.028C241.858 188.98 241.928 188.955 241.999 188.958C242.071 188.967 242.136 189.003 242.182 189.058C242.227 189.114 242.249 189.186 242.243 189.257C242.243 189.357 241.268 199.318 227.54 204.038L227.418 204.06Z" fill="#263238"/>
<path d="M250.696 227.604C254.939 229.355 270.274 249.62 270.064 257.52C269.853 265.421 251.427 279.448 251.427 279.448L258.662 286.251C258.662 286.251 252.524 290.339 251.87 290.118C251.217 289.896 246.253 281.032 245.444 279.448C244.635 277.863 248.402 275.625 248.402 275.625C248.402 275.625 263.704 260.567 263.914 256.601C264.125 252.634 248.402 240.59 248.402 240.59L250.696 227.604Z" fill="#E4897B"/>
<path d="M221.513 229.433C221.923 232.203 214.399 268.213 214.399 268.213L208.859 267.105C208.859 267.105 209.912 231.283 214.078 222.852L218.41 223.129L221.513 229.433Z" fill="#C53F3F"/>
<path d="M236.858 230.342C234.642 233.234 237.478 271.947 237.478 271.947L247.628 271.039L250.697 227.605C250.697 227.605 249.301 225.877 243.495 224.215L236.858 230.342Z" fill="#C53F3F"/>
<path opacity="0.4" d="M221.513 229.433C221.923 232.203 214.399 268.213 214.399 268.213L208.859 267.105C208.859 267.105 209.912 231.283 214.078 222.852L218.41 223.129L221.513 229.433Z" fill="white"/>
<path opacity="0.4" d="M250.696 227.605L249.954 238.087L249.067 250.64L247.627 271.039L237.477 271.947C237.477 271.947 234.63 233.234 236.857 230.353L243.505 224.226C249.3 225.877 250.696 227.605 250.696 227.605Z" fill="white"/>
<path d="M236.857 230.341C236.857 230.341 243.184 219.605 245.444 220.702C247.705 221.799 247.372 223.117 247.372 223.117C247.372 223.117 249.455 223.328 249.677 224.225C249.899 225.123 245.71 229.51 236.857 230.341Z" fill="#C53F3F"/>
<path d="M221.511 229.433C221.511 229.433 221.511 219.605 220.093 219.073C218.675 218.541 217.766 221.478 217.766 221.478C217.766 221.478 216.769 219.262 215.406 221.478C214.044 223.694 221.511 229.433 221.511 229.433Z" fill="#C53F3F"/>
<path opacity="0.2" d="M236.857 230.341C236.857 230.341 243.184 219.605 245.444 220.702C247.705 221.799 247.372 223.117 247.372 223.117C247.372 223.117 249.455 223.328 249.677 224.225C249.899 225.123 245.71 229.51 236.857 230.341Z" fill="white"/>
<path opacity="0.2" d="M221.511 229.433C221.511 229.433 221.511 219.605 220.093 219.073C218.675 218.541 217.766 221.478 217.766 221.478C217.766 221.478 216.769 219.262 215.406 221.478C214.044 223.694 221.511 229.433 221.511 229.433Z" fill="white"/>
<path opacity="0.2" d="M249.955 238.086L249.069 250.64C248.025 246.135 247.729 241.49 248.193 236.89L249.955 238.086Z" fill="black"/>
<path d="M250.696 227.604C253.765 228.845 271.304 248.28 271.005 256.412C270.706 264.545 255.493 276.955 255.493 276.955L249.654 272.944C249.654 272.944 262.064 257.432 261.477 253.642C260.889 249.853 249.654 241.898 249.654 241.898C249.654 241.898 247.438 240.047 248.369 234.352C249.3 228.657 250.696 227.604 250.696 227.604Z" fill="#C53F3F"/>
<path opacity="0.4" d="M250.696 227.604C253.765 228.845 271.304 248.28 271.005 256.412C270.706 264.545 255.493 276.955 255.493 276.955L249.654 272.944C249.654 272.944 262.064 257.432 261.477 253.642C260.889 249.853 249.654 241.898 249.654 241.898C249.654 241.898 247.438 240.047 248.369 234.352C249.3 228.657 250.696 227.604 250.696 227.604Z" fill="white"/>
<path d="M174.09 295.326L178.09 296.6L181.602 302.041C181.602 302.041 178.467 303.514 176.96 302.628C175.453 301.741 173.292 299.415 173.281 298.539C173.432 297.442 173.703 296.364 174.09 295.326Z" fill="#E4897B"/>
</svg>
