<svg width="252" height="33" viewBox="0 0 252 33" fill="none" xmlns="http://www.w3.org/2000/svg">
<path d="M0.6 6.24V4H14.36V6.24L11 6.96L16 21.6L20.88 4H26.2L32.12 21.64L36 7.12L32.76 6.24V4H42.84V6.24L39.16 7.12L32.36 32.28H28.48L21.76 12.04L16.04 32.28H12.4L4.08 7.08L0.6 6.24ZM42.6547 32V29.88L46.0547 29.08V3.64H42.6547V1.52L49.0547 -4.76837e-07H52.2147V13.96C53.8414 12.2533 55.8547 11.4 58.2547 11.4C59.2947 11.4 60.228 11.56 61.0547 11.88C61.908 12.1733 62.6147 12.6 63.1747 13.16C63.7614 13.72 64.2147 14.3867 64.5347 15.16C64.8547 15.9333 65.0147 16.7733 65.0147 17.68V29.08L68.4147 29.88V32H56.2547V29.88L58.8547 29.08V18.8C58.8547 17.4667 58.6947 16.4933 58.3747 15.88C58.0814 15.24 57.428 14.92 56.4147 14.92C55.8814 14.92 55.2547 15.0533 54.5347 15.32C53.8147 15.5867 53.0414 16.04 52.2147 16.68V29.08L54.8147 29.88V32H42.6547ZM69.8953 27.04C69.8953 24.72 70.842 22.96 72.7353 21.76C74.6553 20.5333 77.7486 19.92 82.0153 19.92V18.72C82.0153 17.92 82.002 17.3467 81.9753 17C81.9753 16.6267 81.922 16.1867 81.8153 15.68C81.7086 15.1733 81.5486 14.8133 81.3353 14.6C81.1486 14.3867 80.8553 14.2 80.4553 14.04C80.0553 13.8533 79.562 13.76 78.9753 13.76L73.8953 18.16C72.082 17.12 71.1753 15.5067 71.1753 13.32L72.3753 12.8C72.882 12.5867 73.8686 12.3067 75.3353 11.96C76.802 11.5867 78.2286 11.4 79.6153 11.4C85.3486 11.4 88.2153 13.6933 88.2153 18.28V29H91.3353V30.72C91.202 30.8533 91.0153 31.0267 90.7753 31.24C90.5353 31.4533 90.0153 31.7333 89.2153 32.08C88.4153 32.4267 87.5886 32.6 86.7353 32.6C84.7086 32.6 83.202 31.92 82.2153 30.56C80.4286 31.92 78.482 32.6 76.3753 32.6C74.5353 32.6 72.9886 32.1333 71.7353 31.2C70.5086 30.2667 69.8953 28.88 69.8953 27.04ZM76.3353 26.68C76.3353 27.4533 76.5886 28.0667 77.0953 28.52C77.6286 28.9733 78.2686 29.2 79.0153 29.2C80.2153 29.2 81.2153 28.76 82.0153 27.88V22.4C80.522 22.4 79.202 22.8 78.0553 23.6C76.9086 24.3733 76.3353 25.4 76.3353 26.68ZM92.7059 14.8V13.2L99.5059 8.36H100.986V12.2L105.946 12V14.8H100.986V26.24C100.986 27.5467 101.133 28.4667 101.426 29C101.719 29.5333 102.319 29.8 103.226 29.8C103.893 29.8 104.786 29.56 105.906 29.08L106.546 31.32C104.946 32.1733 103.253 32.6 101.466 32.6C97.0393 32.6 94.8259 30.5467 94.8259 26.44V14.8H92.7059ZM116.809 32V29.88L120.209 29.08V15.64H116.809V13.52L123.209 12H126.369V29.08L129.769 29.88V32H116.809ZM119.569 5.84C119.569 4.8 119.929 3.93333 120.649 3.24C121.369 2.52 122.249 2.16 123.289 2.16C124.356 2.16 125.236 2.52 125.929 3.24C126.649 3.93333 127.009 4.8 127.009 5.84C127.009 6.90667 126.649 7.8 125.929 8.52C125.236 9.24 124.356 9.6 123.289 9.6C122.249 9.6 121.369 9.24 120.649 8.52C119.929 7.8 119.569 6.90667 119.569 5.84ZM132.055 31.68V25.96H134.295L135.735 29.92C136.695 29.9733 137.455 30 138.015 30C141.135 30 142.695 29.32 142.695 27.96C142.695 27.4 142.415 26.92 141.855 26.52C141.295 26.0933 140.762 25.76 140.255 25.52C139.748 25.28 138.788 24.8533 137.375 24.24C135.535 23.44 134.188 22.5333 133.335 21.52C132.508 20.48 132.095 19.1467 132.095 17.52C132.095 15.52 132.895 14 134.495 12.96C136.122 11.92 138.242 11.4 140.855 11.4C143.228 11.4 145.268 11.6533 146.975 12.16V17.6H144.895L143.655 14.08C142.855 13.9467 142.055 13.88 141.255 13.88C138.695 13.88 137.415 14.5067 137.415 15.76C137.415 16.08 137.535 16.4133 137.775 16.76C138.015 17.1067 138.442 17.4533 139.055 17.8C139.695 18.1467 140.695 18.6133 142.055 19.2C144.482 20.2933 146.122 21.36 146.975 22.4C147.828 23.4133 148.255 24.7867 148.255 26.52C148.255 28.4933 147.442 30 145.815 31.04C144.188 32.08 142.028 32.6 139.335 32.6C136.802 32.6 134.375 32.2933 132.055 31.68ZM160.499 30.72V23.36H162.739L164.779 28.96C165.899 29.36 167.299 29.56 168.979 29.56C170.792 29.56 172.352 29.24 173.659 28.6C174.992 27.96 175.659 27.0133 175.659 25.76C175.659 25.4667 175.619 25.1867 175.539 24.92C175.486 24.6533 175.379 24.4 175.219 24.16C175.059 23.92 174.899 23.7067 174.739 23.52C174.579 23.3067 174.339 23.0933 174.019 22.88C173.699 22.64 173.419 22.4533 173.179 22.32C172.939 22.16 172.579 21.96 172.099 21.72C171.646 21.48 170.832 21.08 169.659 20.52L168.219 19.84C165.579 18.56 163.686 17.2267 162.539 15.84C161.392 14.4267 160.819 12.6933 160.819 10.64C160.819 8.45333 161.726 6.70666 163.539 5.4C165.352 4.06667 167.699 3.4 170.579 3.4C173.806 3.4 176.712 3.81333 179.299 4.64V12H177.059L175.099 6.64C174.006 6.4 172.952 6.28 171.939 6.28C170.366 6.28 169.019 6.56 167.899 7.12C166.779 7.65333 166.219 8.44 166.219 9.48C166.219 10.4133 166.659 11.2 167.539 11.84C168.446 12.4533 170.046 13.2667 172.339 14.28L173.139 14.64C175.859 15.8667 177.859 17.2267 179.139 18.72C180.419 20.2133 181.059 22.0267 181.059 24.16C181.059 26.16 180.552 27.8 179.539 29.08C178.552 30.3333 177.246 31.24 175.619 31.8C173.992 32.3333 172.139 32.6 170.059 32.6C166.752 32.6 163.566 31.9733 160.499 30.72ZM183.961 32V29.76L187.641 28.88V7.12L183.961 6.24V4H197.841V6.24L194.161 7.12V28.92H201.441L204.161 23.36H206.401L205.201 32H183.961ZM208.101 32V29.76L211.781 28.88V7.12L208.101 6.24V4H220.341C223.461 4 225.941 4.54666 227.781 5.64C229.621 6.70667 230.541 8.42667 230.541 10.8C230.541 12.24 230.021 13.5467 228.981 14.72C227.941 15.8667 226.715 16.6133 225.301 16.96V17.08C227.515 17.48 229.275 18.3067 230.581 19.56C231.888 20.7867 232.541 22.3067 232.541 24.12C232.541 26.4933 231.528 28.4 229.501 29.84C227.475 31.28 224.915 32 221.821 32H208.101ZM218.301 29.16H219.701C223.835 29.16 225.901 27.48 225.901 24.12C225.901 22.4933 225.395 21.2267 224.381 20.32C223.395 19.4133 221.901 18.96 219.901 18.96H218.301V29.16ZM218.301 16.04H218.861C220.275 16.04 221.461 15.6133 222.421 14.76C223.408 13.9067 223.901 12.7067 223.901 11.16C223.901 8.28 222.141 6.84 218.621 6.84H218.301V16.04ZM235.253 5.32C235.493 5.18666 235.839 5.01333 236.293 4.8C236.746 4.58667 237.666 4.30667 239.053 3.96C240.439 3.58667 241.839 3.4 243.253 3.4C246.106 3.4 248.239 4 249.653 5.2C251.093 6.4 251.813 8.08 251.813 10.24C251.813 12.2133 251.186 13.9333 249.933 15.4C248.679 16.8667 246.706 18.6 244.013 20.6L243.413 24.32H241.013L240.413 19.44C241.666 18.0267 242.586 16.9333 243.173 16.16C243.759 15.3867 244.293 14.44 244.773 13.32C245.279 12.1733 245.533 11.0133 245.533 9.84C245.533 8.61333 245.159 7.58667 244.413 6.76C243.693 5.90666 242.839 5.48 241.853 5.48L237.133 10C235.986 8.88 235.359 7.32 235.253 5.32ZM238.773 29.16C238.773 28.2533 239.106 27.4667 239.773 26.8C240.466 26.1067 241.279 25.76 242.213 25.76C243.146 25.76 243.946 26.0933 244.613 26.76C245.279 27.4267 245.613 28.2267 245.613 29.16C245.613 30.04 245.279 30.84 244.613 31.56C243.946 32.2533 243.146 32.6 242.213 32.6C241.279 32.6 240.466 32.2533 239.773 31.56C239.106 30.84 238.773 30.04 238.773 29.16Z" fill="#FCFAF6"/>
</svg>
