<svg width="662" height="662" viewBox="0 0 662 662" fill="none" xmlns="http://www.w3.org/2000/svg">
<path d="M662 506.298H0V506.629H662V506.298Z" fill="#EBEBEB"/>
<path d="M595.667 527.601H551.816V527.932H595.667V527.601Z" fill="#EBEBEB"/>
<path d="M438.535 531.202H427.029V531.533H438.535V531.202Z" fill="#EBEBEB"/>
<path d="M550.494 515.314H525.086V515.645H550.494V515.314Z" fill="#EBEBEB"/>
<path d="M126.641 517.539H69.457V517.87H126.641V517.539Z" fill="#EBEBEB"/>
<path d="M146.818 517.539H138.438V517.87H146.818V517.539Z" fill="#EBEBEB"/>
<path d="M298.099 523.126H174.066V523.457H298.099V523.126Z" fill="#EBEBEB"/>
<path d="M313.788 447.248H58.1366C56.1339 447.244 54.2144 446.446 52.7994 445.029C51.3845 443.611 50.5898 441.69 50.5898 439.688V80.3142C50.6073 78.3229 51.4097 76.4189 52.8227 75.0158C54.2357 73.6127 56.1453 72.8237 58.1366 72.8203H313.788C315.793 72.8203 317.716 73.6168 319.134 75.0346C320.551 76.4524 321.348 78.3753 321.348 80.3804V439.688C321.348 441.693 320.551 443.616 319.134 445.033C317.716 446.451 315.793 447.248 313.788 447.248ZM58.1366 73.0851C56.2217 73.0886 54.3863 73.8518 53.0335 75.2071C51.6807 76.5625 50.9208 78.3992 50.9208 80.3142V439.688C50.9208 441.602 51.6807 443.439 53.0335 444.795C54.3863 446.15 56.2217 446.913 58.1366 446.917H313.788C315.704 446.913 317.541 446.15 318.896 444.795C320.251 443.44 321.013 441.604 321.017 439.688V80.3142C321.013 78.398 320.251 76.5613 318.896 75.2063C317.541 73.8514 315.704 73.0886 313.788 73.0851H58.1366Z" fill="#EBEBEB"/>
<path d="M600.181 447.248H344.517C342.513 447.244 340.592 446.446 339.175 445.029C337.758 443.612 336.961 441.691 336.957 439.688V80.3142C336.978 78.3217 337.783 76.4177 339.198 75.015C340.614 73.6122 342.524 72.8237 344.517 72.8203H600.181C602.171 72.8272 604.077 73.6177 605.487 75.0204C606.897 76.4232 607.698 78.3252 607.715 80.3142V439.688C607.715 441.688 606.922 443.607 605.51 445.024C604.098 446.441 602.182 447.241 600.181 447.248ZM344.517 73.0851C342.601 73.0886 340.764 73.8514 339.409 75.2063C338.054 76.5613 337.292 78.398 337.288 80.3142V439.688C337.292 441.604 338.054 443.44 339.409 444.795C340.764 446.15 342.601 446.913 344.517 446.917H600.181C602.098 446.913 603.934 446.15 605.289 444.795C606.644 443.44 607.407 441.604 607.411 439.688V80.3142C607.407 78.398 606.644 76.5613 605.289 75.2063C603.934 73.8514 602.098 73.0886 600.181 73.0851H344.517Z" fill="#EBEBEB"/>
<path d="M367.966 305.937H586.188V110.514L367.966 110.514V305.937Z" fill="#E6E6E6"/>
<path d="M358.764 305.937H581.885V110.514L358.764 110.514V305.937Z" fill="#F0F0F0"/>
<path d="M367.966 312.557H586.188V305.937H367.966V312.557Z" fill="#E6E6E6"/>
<path d="M343.46 312.557H566.58V305.937H343.46V312.557Z" fill="#F0F0F0"/>
<path d="M569.029 293.068V123.384L371.634 123.384V293.068H569.029Z" fill="#FAFAFA"/>
<path d="M529.362 293.081L453.855 123.384H376.586L452.094 293.081H529.362Z" fill="white"/>
<path d="M563.07 264.721C563.312 264.721 563.544 264.625 563.716 264.454C563.887 264.282 563.983 264.05 563.983 263.808V131.765C563.983 131.523 563.887 131.29 563.716 131.119C563.544 130.948 563.312 130.852 563.07 130.852C562.828 130.852 562.595 130.948 562.424 131.119C562.252 131.29 562.156 131.523 562.156 131.765V263.808C562.156 264.05 562.252 264.282 562.424 264.454C562.595 264.625 562.828 264.721 563.07 264.721Z" fill="#F0F0F0"/>
<path d="M423.044 293.081L347.536 123.384H320.805L396.312 293.081H423.044Z" fill="white"/>
<path d="M373.262 293.068V123.384H371.633V293.068H373.262Z" fill="#E6E6E6"/>
<g opacity="0.5">
<path opacity="0.5" d="M355.719 141.059H573.954L575.132 128.389H356.91L355.719 141.059Z" fill="#E6E6E6"/>
<path opacity="0.5" d="M355.719 161.978H573.954L575.132 149.308H356.91L355.719 161.978Z" fill="#E6E6E6"/>
<path opacity="0.5" d="M355.719 182.898H573.954L575.132 170.228H356.91L355.719 182.898Z" fill="#E6E6E6"/>
<path opacity="0.5" d="M355.719 203.817H573.954L575.132 191.146H356.91L355.719 203.817Z" fill="#E6E6E6"/>
<path opacity="0.5" d="M355.719 224.75H573.954L575.132 212.079H356.91L355.719 224.75Z" fill="#E6E6E6"/>
<path opacity="0.5" d="M355.719 245.669H573.954L575.132 232.998H356.91L355.719 245.669Z" fill="#E6E6E6"/>
</g>
<path d="M103.086 506.298H276.98L276.98 110.528H103.086L103.086 506.298Z" fill="#F0F0F0"/>
<path d="M103.086 506.298H273.551L273.551 110.528H103.086L103.086 506.298Z" fill="#F5F5F5"/>
<path d="M264.574 506.298V119.505L112.063 119.505L112.063 506.298H264.574Z" fill="#EBEBEB"/>
<path d="M153.465 296.577C144.82 294.193 136.174 301.873 127.528 299.489C126.576 299.089 125.757 298.426 125.168 297.577C124.58 296.728 124.246 295.729 124.205 294.696C124.205 292.869 125.701 292.34 127.528 292.83C136.174 295.213 144.82 287.534 153.465 289.917C154.42 290.311 155.242 290.971 155.834 291.818C156.425 292.665 156.761 293.664 156.802 294.696C156.802 296.577 155.293 297.093 153.465 296.577Z" fill="white"/>
<path d="M114.406 506.298L114.406 119.505H112.076L112.076 506.298H114.406Z" fill="#E0E0E0"/>
<path d="M550.109 497.572H581.303V362.312H550.109V497.572Z" fill="#F0F0F0"/>
<path d="M421.509 506.139H575.318V497.572H421.509V506.139Z" fill="#F0F0F0"/>
<path d="M550.121 362.3H415.523V497.56H550.121V362.3Z" fill="#F5F5F5"/>
<path d="M537.849 378.956H427.785V423.31H537.849V378.956Z" fill="#F0F0F0"/>
<path d="M537.849 436.55H427.785V480.904H537.849V436.55Z" fill="#F0F0F0"/>
<path d="M470.47 382.689H495.176C496.857 382.689 498.221 381.329 498.221 379.651C498.221 377.973 496.857 376.612 495.176 376.612H470.47C468.788 376.612 467.424 377.973 467.424 379.651C467.424 381.329 468.788 382.689 470.47 382.689Z" fill="#F5F5F5"/>
<path d="M470.458 440.297H495.177C495.983 440.293 496.756 439.971 497.326 439.401C497.897 438.831 498.219 438.058 498.222 437.251C498.201 436.456 497.872 435.701 497.303 435.145C496.735 434.588 495.972 434.276 495.177 434.272H470.458C469.652 434.276 468.881 434.598 468.313 435.169C467.745 435.74 467.426 436.512 467.426 437.318C467.443 438.111 467.77 438.867 468.336 439.424C468.902 439.98 469.664 440.293 470.458 440.297Z" fill="#F5F5F5"/>
<path d="M521.114 359.639C520.502 359.639 519.914 359.397 519.48 358.965C519.046 358.533 518.8 357.947 518.797 357.335V287.057C518.8 286.444 519.046 285.856 519.479 285.423C519.913 284.989 520.5 284.744 521.114 284.74C521.725 284.747 522.309 284.994 522.74 285.427C523.171 285.861 523.414 286.446 523.418 287.057V357.335C523.414 357.945 523.17 358.529 522.739 358.96C522.308 359.392 521.724 359.635 521.114 359.639Z" fill="#EBEBEB"/>
<path d="M542.746 356.911H499.465V362.366H542.746V356.911Z" fill="#F0F0F0"/>
<path d="M533.095 326.83C532.79 326.83 532.497 326.709 532.281 326.493C532.065 326.277 531.943 325.984 531.943 325.678V290.539C531.943 290.232 532.064 289.938 532.28 289.72C532.496 289.502 532.789 289.378 533.095 289.374C533.402 289.378 533.695 289.502 533.911 289.72C534.126 289.938 534.247 290.232 534.247 290.539V325.705C534.24 326.005 534.116 326.292 533.901 326.502C533.685 326.712 533.396 326.83 533.095 326.83Z" fill="#E0E0E0"/>
<path d="M487.457 302.693C487.457 302.693 488.318 276.849 521.113 276.849C553.909 276.849 554.756 302.693 554.756 302.693H487.457Z" fill="#E6E6E6"/>
<path d="M330.999 566.09C472.777 566.09 587.71 559.379 587.71 551.102C587.71 542.824 472.777 536.114 330.999 536.114C189.222 536.114 74.2891 542.824 74.2891 551.102C74.2891 559.379 189.222 566.09 330.999 566.09Z" fill="#F5F5F5"/>
<path d="M309.366 190.735C309.432 187.928 312.014 184.261 322.42 183.599C332.827 182.937 336.693 183.414 340.956 191.543C345.59 200.295 350.886 210.079 347.431 219.042C343.975 228.006 333.079 233.289 325.28 238.029C317.482 242.769 305.87 258.696 305.87 258.696C305.87 258.696 284.223 198.6 309.366 190.735Z" fill="#263238"/>
<path d="M314.119 310.65C314.119 310.65 329.888 391.599 335.489 424.514C341.301 458.739 346.2 532.38 346.2 532.38H354.965C354.965 532.38 366.126 468.828 354.965 421.628C355.719 383.947 348.345 305.579 348.345 305.579L314.119 310.65Z" fill="#FF8B7B"/>
<path d="M325.611 308.942C325.611 308.942 360.194 393.598 372.243 424.726C389.137 447.366 431.598 495.388 433.928 496.354L436.999 489.43C436.999 489.43 411.049 438.681 390.13 413.604C384.569 376.333 358.076 304.136 358.076 304.136L325.611 308.942Z" fill="#FF8B7B"/>
<path d="M309.324 257.995C306.835 260.907 304.28 263.688 301.725 266.521C299.169 269.355 296.535 272.082 293.9 274.836C291.265 277.59 288.604 280.33 285.85 282.992C283.096 285.653 280.329 288.288 277.429 290.936L277.866 290.472C277.245 291.187 276.522 291.807 275.721 292.313C275.066 292.708 274.374 293.041 273.656 293.306C272.502 293.722 271.301 293.993 270.081 294.113C268.069 294.312 266.042 294.312 264.03 294.113C260.405 293.766 256.811 293.147 253.279 292.26C249.837 291.412 246.474 290.419 243.138 289.347C239.801 288.274 236.518 287.083 233.3 285.706C232.621 285.42 232.083 284.875 231.805 284.192C231.527 283.51 231.531 282.744 231.817 282.065C232.064 281.469 232.511 280.978 233.082 280.678C233.653 280.378 234.311 280.288 234.942 280.423C238.212 281.112 241.562 281.813 244.872 282.409C248.182 283.005 251.492 283.588 254.789 283.998C257.974 284.452 261.184 284.704 264.401 284.753C265.816 284.781 267.231 284.67 268.625 284.422C269.105 284.333 269.576 284.196 270.028 284.011C270.113 283.981 270.19 283.931 270.253 283.866C270.253 283.866 270.16 283.866 270.041 284.024L270.478 283.561C273.126 280.913 275.642 278.265 278.184 275.551L285.784 267.276L300.877 250.58C301.855 249.465 303.236 248.785 304.716 248.688C306.196 248.591 307.653 249.086 308.768 250.064C309.883 251.042 310.564 252.423 310.661 253.902C310.758 255.382 310.263 256.84 309.285 257.955L309.324 257.995Z" fill="#FF8B7B"/>
<path d="M237.167 281.178L231.699 271.605L227.859 282.012C227.859 282.012 232.507 287.308 236.929 286.262L237.167 281.178Z" fill="#FF8B7B"/>
<path d="M224.761 271.883L223.437 276.345C223.287 276.844 223.286 277.377 223.437 277.876C223.588 278.376 223.883 278.82 224.285 279.152L227.873 282.065L231.66 271.605L228.297 270.281C227.961 270.14 227.599 270.07 227.235 270.075C226.871 270.081 226.511 270.161 226.18 270.311C225.848 270.462 225.551 270.679 225.307 270.949C225.063 271.22 224.877 271.538 224.761 271.883Z" fill="#FF8B7B"/>
<path d="M309.43 244.636C301.645 243.312 298.203 248.74 294.482 252.831C295.37 260.06 308.12 274.889 308.12 274.889C308.12 274.889 323.584 246.939 309.43 244.636Z" fill="#C53F3F"/>
<path d="M299.078 253.506C300.071 261.384 303.831 283.495 314.37 316.595L360.326 309.816C357.149 293.16 352.766 277.418 354.792 244.252C354.848 243.337 354.716 242.42 354.404 241.558C354.092 240.697 353.606 239.908 352.977 239.242C352.347 238.575 351.588 238.045 350.746 237.684C349.903 237.323 348.996 237.138 348.079 237.142C344.968 237.142 341.128 237.274 337.13 237.671C330.413 238.184 323.741 239.171 317.164 240.624C312.927 241.656 308.439 243.033 305.023 244.146C303.102 244.777 301.46 246.055 300.376 247.762C299.292 249.469 298.833 251.499 299.078 253.506Z" fill="#C53F3F"/>
<path d="M317.164 240.597L337.13 237.645C337.13 237.645 336.216 245.31 323.638 255.386C314.079 246.515 317.164 240.597 317.164 240.597Z" fill="white"/>
<path d="M331.834 215.454C331.516 222.074 332.006 233.99 337.13 237.644C333.904 242.871 329.49 247.262 324.247 250.461C322.268 249.636 320.557 248.276 319.306 246.534C318.055 244.792 317.313 242.736 317.164 240.597C324.075 237.83 323.109 232.547 321.136 227.741L331.834 215.454Z" fill="#FF8B7B"/>
<path opacity="0.2" d="M327.465 220.473L321.123 227.728C321.605 228.844 321.986 230 322.262 231.184C324.91 230.389 328.259 226.828 328.127 223.915C328.119 222.737 327.895 221.57 327.465 220.473Z" fill="black"/>
<path d="M336.865 202.678C335.885 213.495 335.7 218.089 330.073 223.491C321.599 231.634 308.532 228.072 306.241 217.175C304.189 207.378 306.122 191.331 316.833 187.319C319.197 186.415 321.754 186.131 324.259 186.495C326.764 186.859 329.134 187.859 331.142 189.399C333.151 190.939 334.732 192.968 335.734 195.293C336.736 197.617 337.125 200.16 336.865 202.678Z" fill="#FF8B7B"/>
<path d="M328.562 194.257C327.609 200.731 331.435 208.662 334.745 208.741C338.055 208.821 340.545 196.322 340.545 196.322L328.562 194.257Z" fill="#263238"/>
<path d="M310.172 190.947C317.229 195.952 338.201 203.459 338.638 196.984C339.075 190.51 330.323 185.28 323.849 185.28C317.374 185.28 312.158 187.862 310.172 190.947Z" fill="#263238"/>
<path opacity="0.2" d="M333.78 414.743L354.964 406.415C354.858 401.371 354.686 396.022 354.435 390.527L331 399.027C331.967 404.641 332.933 409.964 333.78 414.743Z" fill="black"/>
<path opacity="0.2" d="M382.635 380.187L358.141 389.11C360.074 393.903 361.941 398.564 363.688 402.959L386.196 394.075C385.111 389.587 383.959 384.926 382.635 380.187Z" fill="black"/>
<path d="M321.004 205.524C321.004 206.411 320.501 207.113 319.918 207.087C319.335 207.06 318.898 206.345 318.925 205.471C318.951 204.597 319.428 203.882 320.011 203.896C320.593 203.909 321.03 204.637 321.004 205.524Z" fill="#263238"/>
<path d="M311.029 205.241C311.054 204.357 310.607 203.627 310.029 203.61C309.452 203.594 308.963 204.297 308.938 205.182C308.913 206.066 309.361 206.797 309.938 206.813C310.516 206.829 311.004 206.126 311.029 205.241Z" fill="#263238"/>
<path d="M310.293 203.671L308.188 202.996C308.188 202.996 309.233 204.691 310.293 203.671Z" fill="#263238"/>
<path d="M313.628 206.835C312.786 208.824 311.672 210.686 310.318 212.369C310.76 212.705 311.269 212.941 311.811 213.06C312.353 213.179 312.915 213.178 313.456 213.058L313.628 206.835Z" fill="#FF5652"/>
<path d="M316.58 216.342C316.089 216.414 315.593 216.445 315.097 216.435C315.03 216.428 314.968 216.398 314.922 216.349C314.876 216.301 314.849 216.237 314.846 216.17C314.846 216.136 314.853 216.102 314.866 216.07C314.879 216.039 314.899 216.011 314.924 215.987C314.949 215.964 314.978 215.945 315.01 215.933C315.042 215.922 315.076 215.916 315.11 215.918C316.207 215.973 317.301 215.77 318.304 215.323C319.306 214.877 320.19 214.201 320.883 213.35C320.902 213.322 320.927 213.298 320.955 213.28C320.983 213.261 321.015 213.249 321.048 213.243C321.081 213.236 321.115 213.237 321.148 213.244C321.181 213.251 321.213 213.264 321.241 213.284C321.268 213.303 321.292 213.327 321.311 213.355C321.329 213.384 321.342 213.415 321.348 213.449C321.354 213.482 321.353 213.516 321.346 213.549C321.339 213.582 321.326 213.613 321.307 213.641C320.145 215.125 318.448 216.095 316.58 216.342Z" fill="#263238"/>
<path d="M339.196 208.411C338.943 209.421 338.492 210.37 337.87 211.205C337.247 212.039 336.464 212.741 335.568 213.27C333.171 214.673 331.265 212.7 331.344 210.066C331.41 207.696 332.748 204.108 335.449 203.777C336.038 203.714 336.633 203.8 337.181 204.027C337.728 204.253 338.21 204.613 338.583 205.074C338.956 205.535 339.207 206.082 339.314 206.664C339.421 207.247 339.38 207.848 339.196 208.411Z" fill="#FF8B7B"/>
<path d="M324.711 200.97C324.641 200.979 324.57 200.971 324.504 200.948C324.437 200.925 324.377 200.888 324.327 200.838C323.864 200.378 323.298 200.036 322.677 199.838C322.055 199.64 321.396 199.592 320.752 199.699C320.626 199.709 320.501 199.673 320.398 199.599C320.296 199.524 320.224 199.415 320.196 199.292C320.167 199.168 320.183 199.039 320.241 198.927C320.3 198.814 320.396 198.727 320.514 198.68C321.324 198.54 322.155 198.595 322.94 198.839C323.725 199.083 324.441 199.509 325.029 200.083C325.078 200.13 325.117 200.187 325.144 200.249C325.171 200.312 325.185 200.379 325.185 200.447C325.185 200.515 325.171 200.583 325.144 200.645C325.117 200.708 325.078 200.764 325.029 200.811C324.989 200.857 324.94 200.895 324.886 200.922C324.831 200.95 324.772 200.966 324.711 200.97Z" fill="#263238"/>
<path d="M308.491 200.136C308.426 200.124 308.365 200.099 308.31 200.063C308.255 200.027 308.209 199.979 308.173 199.924C308.133 199.869 308.105 199.806 308.09 199.74C308.075 199.673 308.074 199.605 308.087 199.538C308.099 199.471 308.125 199.408 308.162 199.351C308.2 199.294 308.249 199.246 308.305 199.209C308.97 198.724 309.742 198.406 310.555 198.282C311.369 198.157 312.2 198.23 312.979 198.494C313.106 198.547 313.206 198.647 313.258 198.774C313.31 198.901 313.31 199.043 313.257 199.169C313.232 199.233 313.195 199.291 313.148 199.34C313.1 199.39 313.043 199.429 312.981 199.456C312.918 199.483 312.85 199.497 312.782 199.498C312.713 199.499 312.645 199.486 312.582 199.46C311.964 199.257 311.305 199.204 310.662 199.308C310.02 199.412 309.411 199.668 308.888 200.056C308.771 200.134 308.629 200.163 308.491 200.136Z" fill="#263238"/>
<path d="M320.261 203.896L318.156 203.234C318.156 203.234 319.202 204.969 320.261 203.896Z" fill="#263238"/>
<path d="M314.369 316.595L329.741 407.501L387.295 390.435C382.635 342.387 370.719 318.595 360.325 309.816L314.369 316.595Z" fill="#263238"/>
<path opacity="0.2" d="M337.686 367.675L349.191 348.768L347.218 335.462L337.686 367.675Z" fill="black"/>
<path d="M354.208 241.683C355.188 242.557 356.393 243.563 357.505 244.49C358.617 245.417 359.822 246.37 361.014 247.27C363.384 249.058 365.767 250.819 368.243 252.407C372.951 255.595 378.104 258.071 383.535 259.756C383.853 259.861 384.184 259.914 384.501 259.994L384.978 260.113C385.124 260.113 384.978 260.113 384.978 260.113H384.793C384.263 260.113 384.064 260.351 384.21 260.298C384.97 259.785 385.622 259.129 386.13 258.365C387.744 256.048 389.136 253.583 390.287 251.004C391.611 248.356 392.776 245.509 393.875 242.649C394.974 239.79 396.1 236.89 397.132 234.03C397.36 233.377 397.824 232.832 398.432 232.502C399.041 232.172 399.75 232.081 400.422 232.247C401.094 232.412 401.68 232.822 402.066 233.397C402.452 233.972 402.609 234.67 402.508 235.354C401.605 241.752 400.152 248.06 398.165 254.208C397.114 257.496 395.712 260.661 393.981 263.648C392.877 265.579 391.39 267.264 389.612 268.6C388.154 269.63 386.418 270.193 384.634 270.215C384.374 270.235 384.113 270.235 383.853 270.215L383.23 270.136L382.555 270.017C382.118 269.937 381.655 269.884 381.231 269.778C377.816 269.056 374.487 267.973 371.301 266.548C368.224 265.198 365.246 263.631 362.391 261.861C359.564 260.151 356.828 258.295 354.195 256.3C352.88 255.311 351.596 254.292 350.342 253.241C349.018 252.169 347.88 251.15 346.556 249.892C345.544 248.868 344.966 247.495 344.94 246.056C344.915 244.617 345.444 243.224 346.418 242.165C347.392 241.106 348.736 240.462 350.171 240.368C351.607 240.273 353.024 240.734 354.129 241.656L354.208 241.683Z" fill="#FF8B7B"/>
<path d="M347.576 237.115C355.52 236.651 358.539 240.782 361.809 245.231C360.194 252.327 351.588 264.469 351.588 264.469C351.588 264.469 333.264 237.962 347.576 237.115Z" fill="#C53F3F"/>
<path d="M396.723 234.679L398.709 223.015L405.898 231.515C405.898 231.515 403.382 238.135 398.868 238.651L396.723 234.679Z" fill="#FF8B7B"/>
<path d="M405.276 219.85L409.593 223.637C409.973 223.972 410.216 224.434 410.277 224.937C410.339 225.44 410.213 225.948 409.924 226.364L405.144 233.13L398.723 223.014L402.695 219.81C403.063 219.518 403.522 219.362 403.993 219.369C404.463 219.377 404.917 219.546 405.276 219.85Z" fill="#FF8B7B"/>
<path d="M329.569 548.944C330.912 547.966 332.405 547.215 333.991 546.719C333.991 546.719 341.829 542.284 345.907 528.978L354.976 526.714C355.202 526.658 355.436 526.65 355.665 526.691C355.893 526.732 356.11 526.822 356.302 526.953C356.493 527.085 356.655 527.255 356.775 527.453C356.896 527.652 356.973 527.873 357.002 528.104C357.081 528.819 357.134 529.64 357.227 530.302C357.326 531.743 357.326 533.19 357.227 534.631C357.148 539.12 356.644 549.195 356.644 549.195H355.598C355.592 546.129 355.406 543.065 355.042 540.02C354.513 537.054 352.394 540.563 351.256 543.912C350.117 547.262 345.364 550.85 338.506 551.009C330.495 551.247 327.238 550.89 329.569 548.944Z" fill="#263238"/>
<path d="M430.669 517.684C430.927 516.043 431.45 514.456 432.218 512.983C432.218 512.983 434.615 504.298 428.074 492.011L432.867 484.001C432.984 483.8 433.143 483.627 433.332 483.492C433.522 483.358 433.738 483.266 433.967 483.222C434.195 483.178 434.43 483.183 434.656 483.238C434.882 483.292 435.094 483.394 435.277 483.538C435.846 483.988 436.468 484.531 436.998 484.862C438.087 485.814 439.113 486.835 440.07 487.92C443.194 491.151 450 498.644 450 498.644L449.258 499.399C447.084 497.232 444.78 495.198 442.36 493.309C439.898 491.588 440.904 495.546 442.453 498.737C444.002 501.928 443.194 507.807 438.481 512.772C432.947 518.677 430.404 520.729 430.669 517.684Z" fill="#263238"/>
<path opacity="0.9" d="M395.769 136.955L256.167 123.569C252.73 123.255 249.309 124.312 246.648 126.509C243.987 128.706 242.302 131.866 241.96 135.3L221.954 344.24C221.63 347.677 222.681 351.102 224.877 353.765C227.074 356.428 230.236 358.111 233.672 358.447L373.261 371.832C376.698 372.15 380.122 371.094 382.783 368.896C385.445 366.698 387.129 363.537 387.468 360.102L407.486 151.227C407.655 149.521 407.485 147.798 406.987 146.157C406.489 144.516 405.673 142.989 404.585 141.663C403.497 140.338 402.158 139.24 400.645 138.432C399.133 137.624 397.476 137.122 395.769 136.955ZM365.886 216.951C364.92 226.927 360.853 236.35 354.256 243.896C347.66 251.442 338.865 256.733 329.108 259.024C319.35 261.315 309.12 260.493 299.854 256.672C290.588 252.851 282.752 246.223 277.446 237.72C272.14 229.216 269.631 219.265 270.271 209.262C270.911 199.26 274.668 189.709 281.015 181.952C287.361 174.194 295.979 168.619 305.656 166.011C315.334 163.402 325.585 163.89 334.971 167.407C338.723 168.81 342.282 170.683 345.563 172.981C352.554 177.842 358.123 184.478 361.698 192.206C365.272 199.934 366.722 208.476 365.9 216.951H365.886Z" fill="white"/>
<path d="M325.214 85.8083L340.334 88.7079C342.191 89.0995 343.838 90.1611 344.961 91.6898C346.084 93.2186 346.605 95.1076 346.425 96.9961L343.499 123.635C343.461 123.984 343.394 124.329 343.3 124.668C342.895 126.248 341.898 127.613 340.516 128.48C339.134 129.347 337.472 129.651 335.872 129.328L320.752 126.482C319.059 126.122 317.536 125.205 316.425 123.878C315.314 122.551 314.679 120.89 314.622 119.16C314.589 118.808 314.589 118.453 314.622 118.101L317.548 91.4618C317.634 90.5671 317.907 89.7005 318.35 88.9184C318.793 88.1364 319.395 87.4565 320.119 86.923C320.842 86.3896 321.67 86.0146 322.548 85.8225C323.426 85.6305 324.334 85.6256 325.214 85.8083ZM331.53 98.5187C330.83 98.3783 330.108 98.3868 329.412 98.5438C328.715 98.7007 328.059 99.0026 327.487 99.4298C326.915 99.857 326.44 100.4 326.091 101.023C325.743 101.646 325.53 102.336 325.466 103.047C325.31 104.555 325.719 106.067 326.614 107.29C327.51 108.513 328.827 109.36 330.312 109.667C331.012 109.809 331.734 109.802 332.432 109.646C333.129 109.49 333.785 109.189 334.358 108.761C334.93 108.334 335.406 107.79 335.754 107.166C336.102 106.541 336.313 105.851 336.376 105.139C336.529 103.632 336.118 102.121 335.223 100.899C334.328 99.6762 333.013 98.8284 331.53 98.5187Z" fill="#263238"/>
<path d="M371.805 142.237C371.497 142.237 371.196 142.15 370.936 141.986C370.676 141.822 370.468 141.588 370.335 141.31L364.496 129.248C364.102 128.427 363.502 127.721 362.755 127.2C362.009 126.678 361.14 126.357 360.233 126.269L293.08 119.835C292.173 119.747 291.26 119.895 290.427 120.264C289.594 120.633 288.871 121.21 288.327 121.94L280.303 132.691C280.175 132.865 280.015 133.012 279.83 133.123C279.645 133.235 279.441 133.309 279.227 133.342C279.014 133.375 278.796 133.365 278.587 133.313C278.377 133.262 278.18 133.17 278.006 133.042C277.832 132.914 277.685 132.753 277.573 132.569C277.462 132.384 277.387 132.179 277.355 131.966C277.322 131.752 277.332 131.535 277.383 131.325C277.435 131.116 277.527 130.918 277.655 130.745L285.679 119.994C286.562 118.819 287.732 117.889 289.076 117.294C290.42 116.698 291.894 116.456 293.358 116.591L360.498 123.026C361.961 123.174 363.363 123.693 364.57 124.534C365.777 125.375 366.75 126.51 367.396 127.832L373.221 139.893C373.342 140.141 373.399 140.416 373.385 140.691C373.371 140.966 373.287 141.234 373.141 141.468C372.996 141.702 372.793 141.896 372.552 142.03C372.312 142.165 372.041 142.236 371.765 142.237H371.805Z" fill="#C53F3F"/>
<path d="M234.348 179.455L233.275 179.349L234.017 171.577L235.103 171.683L234.348 179.455ZM235.672 164.414L234.599 164.308L236.281 146.699L237.367 146.805L235.672 164.414Z" fill="#C53F3F"/>
<path d="M374.519 372.361C374.077 372.366 373.635 372.344 373.195 372.295L233.606 358.923C230.026 358.574 226.73 356.82 224.442 354.045C222.154 351.27 221.059 347.701 221.399 344.12L241.404 135.246C241.756 131.668 243.511 128.374 246.285 126.087C249.059 123.799 252.627 122.703 256.207 123.039L395.875 136.372C399.456 136.72 402.753 138.474 405.043 141.248C407.334 144.023 408.432 147.592 408.096 151.174L388.011 360.128C387.68 363.48 386.117 366.591 383.625 368.859C381.133 371.126 377.888 372.388 374.519 372.401V372.361ZM254.922 124.058C251.821 124.067 248.832 125.227 246.538 127.314C244.243 129.4 242.805 132.265 242.503 135.352L222.431 344.24C222.132 347.533 223.145 350.812 225.25 353.363C227.355 355.915 230.381 357.532 233.672 357.864L373.367 371.223C376.661 371.529 379.942 370.518 382.493 368.412C385.044 366.305 386.656 363.274 386.978 359.982L406.997 151.108C407.3 147.815 406.29 144.536 404.187 141.985C402.085 139.433 399.059 137.816 395.769 137.484L256.114 124.111C255.717 124.072 255.319 124.058 254.922 124.058ZM318.183 260.934C316.621 260.934 315.045 260.854 313.47 260.708C306.591 260.045 299.934 257.92 293.942 254.477C287.951 251.034 282.764 246.351 278.727 240.743C274.691 235.134 271.898 228.728 270.535 221.954C269.173 215.179 269.273 208.192 270.827 201.458C272.382 194.725 275.356 188.402 279.551 182.91C283.746 177.419 289.064 172.886 295.151 169.615C301.238 166.344 307.953 164.41 314.848 163.942C321.742 163.475 328.657 164.484 335.13 166.903C338.931 168.317 342.535 170.213 345.855 172.543C352.923 177.46 358.554 184.17 362.17 191.984C365.786 199.797 367.257 208.433 366.43 217.003C365.282 229.011 359.705 240.161 350.786 248.282C341.867 256.403 330.245 260.913 318.183 260.934ZM318.064 164.904C308.87 164.91 299.877 167.586 292.175 172.606C284.473 177.626 278.395 184.775 274.679 193.184C270.964 201.593 269.77 210.9 271.243 219.975C272.716 229.05 276.793 237.501 282.978 244.303C289.163 251.105 297.19 255.964 306.084 258.29C314.979 260.616 324.357 260.31 333.08 257.407C341.803 254.505 349.496 249.131 355.224 241.94C360.951 234.749 364.467 226.049 365.344 216.897C366.151 208.521 364.713 200.081 361.178 192.444C357.644 184.808 352.14 178.249 345.232 173.444C341.99 171.162 338.465 169.311 334.746 167.936C330.85 166.47 326.776 165.53 322.632 165.142C321.096 164.983 319.573 164.904 318.064 164.904Z" fill="#C53F3F"/>
<path opacity="0.8" d="M334.971 167.407C326.115 164.096 316.478 163.473 307.269 165.616C298.06 167.76 289.689 172.574 283.205 179.455C276.721 186.337 272.412 194.979 270.82 204.299C269.227 213.619 270.421 223.202 274.252 231.846L229.236 269.024L242.053 135.3C242.395 131.866 244.08 128.706 246.74 126.509C249.401 124.312 252.823 123.255 256.259 123.569L302.52 128.004L317.322 145.958L334.971 167.407Z" fill="#C53F3F"/>
<path opacity="0.5" d="M407.486 151.161L398.522 244.49L365.423 204.386C364.357 198.097 362.053 192.082 358.644 186.691C355.234 181.299 350.788 176.639 345.562 172.981L389.89 136.372L395.769 136.941C399.205 137.28 402.368 138.966 404.564 141.631C406.76 144.296 407.811 147.723 407.486 151.161Z" fill="#C53F3F"/>
<path d="M389.891 136.372L345.564 172.98C342.282 170.683 338.723 168.81 334.972 167.406L317.27 145.957L302.428 128.004L389.891 136.372Z" fill="#C53F3F"/>
<path opacity="0.5" d="M353.383 280.65L270.535 272.717C269.145 272.584 267.91 273.603 267.777 274.993L267.363 279.316C267.229 280.706 268.249 281.941 269.639 282.074L352.486 290.008C353.877 290.141 355.112 289.122 355.245 287.732L355.659 283.409C355.792 282.018 354.773 280.783 353.383 280.65Z" fill="#C53F3F"/>
<path opacity="0.5" d="M345.287 296.864L275.408 290.173C274.018 290.04 272.783 291.059 272.65 292.449L272.236 296.772C272.102 298.162 273.122 299.397 274.512 299.53L344.391 306.222C345.781 306.355 347.016 305.336 347.149 303.946L347.563 299.623C347.696 298.232 346.677 296.997 345.287 296.864Z" fill="#C53F3F"/>
<path opacity="0.5" d="M264.117 332.214L243.346 330.225L243.02 333.625L263.791 335.614L264.117 332.214Z" fill="#C53F3F"/>
<path opacity="0.5" d="M285.544 334.272L268.793 332.668L268.467 336.068L285.219 337.672L285.544 334.272Z" fill="#C53F3F"/>
<path opacity="0.5" d="M290.759 342.49L242.613 337.88L242.288 341.28L290.433 345.891L290.759 342.49Z" fill="#C53F3F"/>
<path opacity="0.5" d="M300.39 330.875L243.656 325.202L243.315 328.618L300.048 334.291L300.39 330.875Z" fill="#C53F3F"/>
<path d="M338.943 88.0856L323.585 85.2919C322.67 85.13 321.733 85.1498 320.826 85.3502C319.919 85.5507 319.06 85.9279 318.299 86.4603C317.538 86.9927 316.889 87.6699 316.39 88.4531C315.891 89.2363 315.551 90.1102 315.389 91.0249L310.596 117.703C310.527 118.052 310.496 118.407 310.504 118.763C310.449 120.456 311.003 122.113 312.064 123.434C313.125 124.755 314.624 125.653 316.29 125.965L331.608 128.759C333.276 129.06 334.997 128.751 336.455 127.888C337.914 127.025 339.013 125.665 339.552 124.059C339.679 123.724 339.772 123.379 339.83 123.026L344.61 96.3473C344.943 94.5015 344.535 92.5987 343.474 91.0519C342.413 89.5051 340.785 88.4392 338.943 88.0856ZM329.212 97.9759C330.317 98.1648 331.34 98.678 332.153 99.4502C332.966 100.222 333.53 101.219 333.775 102.312C334.021 103.406 333.935 104.548 333.529 105.593C333.124 106.638 332.417 107.539 331.498 108.182C330.58 108.824 329.491 109.179 328.37 109.201C327.249 109.223 326.147 108.911 325.204 108.306C324.261 107.7 323.519 106.827 323.073 105.799C322.626 104.771 322.496 103.633 322.698 102.53C322.969 101.068 323.804 99.7716 325.022 98.9195C326.241 98.0675 327.746 97.7286 329.212 97.9759Z" fill="#263238"/>
<path opacity="0.2" d="M338.943 88.0856L323.585 85.2919C322.67 85.13 321.733 85.1498 320.826 85.3502C319.919 85.5507 319.06 85.9279 318.299 86.4603C317.538 86.9927 316.889 87.6699 316.39 88.4531C315.891 89.2363 315.551 90.1102 315.389 91.0249L310.596 117.703C310.527 118.052 310.496 118.407 310.504 118.763C310.449 120.456 311.003 122.113 312.064 123.434C313.125 124.755 314.624 125.653 316.29 125.965L331.608 128.759C333.276 129.06 334.997 128.751 336.455 127.888C337.914 127.025 339.013 125.665 339.552 124.059C339.679 123.724 339.772 123.379 339.83 123.026L344.61 96.3473C344.943 94.5015 344.535 92.5987 343.474 91.0519C342.413 89.5051 340.785 88.4392 338.943 88.0856ZM329.212 97.9759C330.317 98.1648 331.34 98.678 332.153 99.4502C332.966 100.222 333.53 101.219 333.775 102.312C334.021 103.406 333.935 104.548 333.529 105.593C333.124 106.638 332.417 107.539 331.498 108.182C330.58 108.824 329.491 109.179 328.37 109.201C327.249 109.223 326.147 108.911 325.204 108.306C324.261 107.7 323.519 106.827 323.073 105.799C322.626 104.771 322.496 103.633 322.698 102.53C322.969 101.068 323.804 99.7716 325.022 98.9195C326.241 98.0675 327.746 97.7286 329.212 97.9759Z" fill="white"/>
<path opacity="0.2" d="M367.502 350.499C371.501 347.199 372.068 341.283 368.768 337.284C365.468 333.285 359.551 332.719 355.553 336.018C351.554 339.318 350.987 345.235 354.287 349.233C357.587 353.232 363.504 353.799 367.502 350.499Z" fill="#C53F3F"/>
<path opacity="0.8" d="M342.649 348.114C346.647 344.814 347.214 338.898 343.914 334.899C340.614 330.9 334.698 330.334 330.699 333.634C326.701 336.933 326.134 342.85 329.434 346.849C332.734 350.847 338.65 351.414 342.649 348.114Z" fill="#C53F3F"/>
</svg>
